<svg xmlns="http://www.w3.org/2000/svg" xmlns:xlink="http://www.w3.org/1999/xlink" width="1920" zoomAndPan="magnify" viewBox="0 0 1440 809.999993" height="1080" preserveAspectRatio="xMidYMid meet" version="1.0"><defs><clipPath id="26d20343bc"><path d="M 312 335 L 1135.375 335 L 1135.375 758 L 312 758 Z M 312 335 " clip-rule="nonzero"/></clipPath><clipPath id="d77bba25b0"><path d="M 304.621094 148 L 561 148 L 561 409 L 304.621094 409 Z M 304.621094 148 " clip-rule="nonzero"/></clipPath><clipPath id="e5ee9e56a4"><path d="M 308 51.375 L 562 51.375 L 562 369 L 308 369 Z M 308 51.375 " clip-rule="nonzero"/></clipPath><clipPath id="94fdfab239"><path d="M 368 51.375 L 394 51.375 L 394 80 L 368 80 Z M 368 51.375 " clip-rule="nonzero"/></clipPath></defs><path fill="#301027" d="M 372.921875 335.777344 C 354.957031 355.152344 331 380.992188 313.03125 400.367188 C 313.035156 400.375 325.949219 440.136719 333.480469 456.359375 C 336.917969 463.761719 342.527344 473.128906 346.710938 480.144531 C 354.777344 493.667969 365.886719 511.523438 375.121094 524.28125 C 381.269531 532.769531 390.074219 543.65625 397.011719 551.511719 C 410.777344 567.097656 430.128906 587.050781 445.582031 600.96875 C 462.585938 616.285156 486.5625 635.304688 505.339844 648.390625 C 523.25 660.875 548.128906 676.164062 567.488281 686.25 C 594.410156 700.273438 631.566406 716.765625 660.328125 726.464844 C 688.582031 735.992188 727.359375 745.730469 756.824219 750.292969 C 788.035156 755.117188 830.308594 757.867188 861.875 757.011719 C 893.046875 756.167969 934.765625 752.039062 965.09375 744.792969 C 988.769531 739.132812 1020.164062 729.132812 1041.4375 717.300781 C 1056.855469 708.722656 1075.363281 693.667969 1087.910156 681.261719 C 1096.59375 672.679688 1107.167969 660.058594 1113.484375 649.609375 C 1119.574219 639.539062 1125.824219 624.925781 1129.089844 613.621094 C 1132.125 603.121094 1134.40625 588.554688 1134.726562 577.628906 C 1135.03125 567.207031 1133.511719 553.242188 1131.398438 543.03125 C 1129.671875 534.679688 1125.367188 524.070312 1122.785156 515.945312 C 1122.707031 515.929688 597.878906 389.828125 372.921875 335.777344 Z M 372.921875 335.777344 " fill-opacity="1" fill-rule="evenodd"/><g clip-path="url(#26d20343bc)"><path stroke-linecap="round" transform="matrix(-1.147632, 0, 0, 1.14799, 1425.744318, 22.088764)" fill="none" stroke-linejoin="round" d="M 969.573432 329.513569 C 953.916186 312.63625 933.040992 290.127488 917.387149 273.25017 C 721.368636 320.333124 264.054509 430.178606 263.986434 430.192217 C 261.736555 437.269802 257.985624 446.511495 256.481167 453.786436 C 254.639738 462.681055 253.31568 474.845655 253.581172 483.924019 C 253.86028 493.441329 255.848069 506.129942 258.492782 515.27636 C 261.338317 525.12373 266.784316 537.853176 272.090761 546.625298 C 277.594623 555.727481 286.808572 566.721557 294.375107 574.197256 C 305.307949 585.004184 321.434913 598.118132 334.869511 605.590429 C 353.406329 615.897162 380.762261 624.608036 401.392385 629.538527 C 427.819094 635.850508 464.171135 639.447146 491.333054 640.182126 C 518.838751 640.927314 555.674125 638.531824 582.870081 634.329508 C 608.544562 630.355172 642.33358 621.872278 666.952898 613.573128 C 692.014703 605.124261 724.391166 590.758124 747.849805 578.542485 C 764.718786 569.756752 786.397265 556.438642 802.003455 545.56366 C 818.365277 534.164665 839.25749 517.596991 854.07401 504.255062 C 867.539242 492.131295 884.401416 474.750379 896.396228 461.173666 C 902.441286 454.330866 910.113337 444.847582 915.470838 437.453547 C 923.517301 426.340378 933.197564 410.786704 940.226306 399.006608 C 943.871722 392.895385 948.759506 384.735746 951.754805 378.287658 C 958.317233 364.156306 969.570028 329.520374 969.573432 329.513569 " stroke="#301027" stroke-width="1" stroke-opacity="1" stroke-miterlimit="4"/></g><path fill="#6b4344" d="M 872.769531 722.792969 C 879.152344 721.4375 887.398438 718.5625 893.664062 716.746094 C 893.660156 716.746094 860.125 714.339844 845.800781 712.765625 C 839.066406 712.023438 830.101562 710.851562 823.410156 709.78125 C 793.003906 704.917969 752.484375 697.832031 722.65625 690.175781 C 693.386719 682.65625 654.675781 670.921875 626.730469 659.410156 C 604.203125 650.128906 575.3125 635.015625 554.238281 622.785156 C 534.886719 611.550781 509.832031 595.195312 491.964844 581.726562 C 476.472656 570.046875 456.984375 552.945312 442.808594 539.703125 C 435.589844 532.957031 426.378906 523.527344 419.636719 516.308594 C 407.855469 503.691406 392.867188 486.207031 381.757812 472.996094 C 379.371094 470.152344 376.101562 466.421875 373.9375 463.40625 C 373.527344 462.832031 373.042969 462.023438 372.65625 461.429688 C 372.65625 461.429688 372.894531 462.667969 372.996094 463.199219 C 377.359375 472.402344 382.671875 484.933594 387.546875 493.878906 C 390.683594 499.644531 395.304688 507.097656 398.980469 512.535156 C 406.359375 523.453125 416.847656 537.601562 425.386719 547.636719 C 435.757812 559.832031 450.636719 575.21875 462.421875 586.046875 C 475.511719 598.074219 494.046875 612.945312 508.445312 623.371094 C 524.878906 635.265625 547.554688 650.164062 565.367188 659.875 C 586.914062 671.621094 617.023438 684.707031 639.890625 693.613281 C 653.363281 698.863281 671.648438 705.101562 685.59375 708.921875 C 708.164062 715.101562 738.695312 722.207031 761.9375 724.875 C 786.386719 727.683594 819.390625 728.210938 843.949219 726.660156 C 852.65625 726.109375 864.238281 724.609375 872.769531 722.792969 M 372.996094 463.199219 Z M 372.996094 463.199219 " fill-opacity="1" fill-rule="evenodd"/><path stroke-linecap="round" transform="matrix(-1.147632, 0, 0, 1.14799, 1425.744318, 22.088764)" fill="none" stroke-linejoin="round" d="M 463.633343 605.107248 C 469.092957 606.689496 476.278271 609.193873 481.839998 610.374604 C 489.273786 611.956853 499.365902 613.263484 506.952859 613.743263 C 528.35223 615.094129 557.110507 614.634766 578.414574 612.188236 C 598.666881 609.864202 625.270585 603.674717 644.937448 598.291669 C 657.088833 594.963843 673.021783 589.529755 684.761314 584.956546 C 704.686862 577.198424 730.92296 565.799429 749.698041 555.567555 C 765.219137 547.108479 784.977901 534.130638 799.297474 523.769462 C 811.843694 514.687695 827.994484 501.733673 839.400447 491.256805 C 849.669559 481.824562 862.634439 468.421385 871.671394 457.798202 C 879.111989 449.056704 888.251056 436.732178 894.680738 427.221673 C 897.883666 422.485135 901.910302 415.992812 904.643512 410.970449 C 908.891391 403.1783 913.52049 392.262486 917.322478 384.245759 C 917.410975 383.782994 917.618604 382.704343 917.618604 382.704343 C 917.281633 383.221551 916.859568 383.925907 916.502174 384.426102 C 914.616497 387.052975 911.767559 390.302539 909.687868 392.779694 C 900.007606 404.287575 886.94742 419.517994 876.681712 430.508667 C 870.806841 436.796829 862.780801 445.010911 856.490672 450.887348 C 844.138466 462.422451 827.157162 477.319407 813.657892 487.493435 C 798.089143 499.225894 776.257496 513.472936 759.395322 523.259059 C 741.032096 533.912866 715.857966 547.077855 696.228545 555.162635 C 671.878123 565.190348 638.146968 575.412014 612.642676 581.962183 C 586.651647 588.631446 551.344556 594.803917 524.849772 599.04026 C 519.01915 599.972596 511.207546 600.993401 505.339482 601.639912 C 492.857934 603.011194 463.636747 605.107248 463.633343 605.107248 " stroke="#6b4344" stroke-width="1" stroke-opacity="1" stroke-miterlimit="4"/><path fill="#581248" d="M 389.277344 286.664062 C 380.929688 296.078125 376.289062 312.988281 370.722656 324.269531 C 370.722656 324.273438 373.089844 341.253906 374.460938 348.472656 C 375.75 355.253906 377.65625 364.273438 379.519531 370.917969 C 382.015625 379.804688 385.835938 391.550781 389.460938 400.039062 C 394.472656 411.785156 402.324219 426.996094 409.234375 437.730469 C 417.113281 449.96875 429.441406 465.074219 439.105469 475.953125 C 448.484375 486.515625 461.859375 499.867188 472.515625 509.140625 C 484.058594 519.1875 500.421875 531.484375 513.148438 539.980469 C 531.039062 551.925781 556.085938 566.050781 575.230469 575.859375 C 587.351562 582.066406 603.890625 589.621094 616.539062 594.660156 C 645.773438 606.308594 685.53125 620.132812 716.019531 627.941406 C 737.410156 633.421875 766.4375 638.980469 788.386719 641.382812 C 823.308594 645.199219 870.367188 646.4375 905.449219 644.554688 C 920.023438 643.773438 939.4375 641.550781 953.738281 638.632812 C 974.484375 634.398438 1002.054688 627.199219 1021.433594 618.667969 C 1037.558594 611.574219 1058.105469 599.585938 1071.871094 588.589844 C 1081.84375 580.628906 1093.742188 568.195312 1101.457031 558.027344 C 1106.78125 551.007812 1112.664062 540.738281 1116.492188 532.800781 C 1118.691406 528.234375 1120.898438 521.820312 1122.601562 517.042969 C 1122.773438 516.558594 1122.984375 515.90625 1123.144531 515.417969 C 1123.144531 515.417969 1119.710938 507.042969 1117.917969 503.609375 C 1114.761719 497.574219 1109.996094 489.792969 1105.964844 484.300781 C 1104.046875 481.6875 1101.183594 478.441406 1098.992188 476.050781 C 1094.15625 470.773438 1087.609375 463.753906 1082.054688 459.234375 C 1074.492188 453.082031 1063.457031 446.035156 1054.835938 441.488281 C 1042.511719 434.988281 1025.085938 428.238281 1011.820312 423.984375 C 995.769531 418.835938 973.671875 414.351562 957.136719 411.101562 C 940.1875 407.765625 917.382812 404.4375 900.265625 402.105469 C 879.390625 399.257812 851.386719 396.796875 830.480469 394.164062 C 808.445312 391.390625 778.863281 388.703125 757.15625 384.027344 C 739.671875 380.261719 716.613281 373.777344 699.929688 367.332031 C 689.109375 363.148438 675.050781 356.515625 665.054688 350.632812 C 648.734375 341.027344 628.699219 325.464844 613.90625 313.644531 C 605.46875 306.90625 594.773438 297.242188 586.769531 289.988281 C 580.117188 283.960938 571.089844 276.054688 564.964844 269.488281 C 563.746094 268.183594 562.28125 266.304688 561.132812 264.941406 C 549.171875 265.636719 533.242188 266.988281 521.265625 267.25 C 502.238281 267.671875 476.855469 265.507812 457.832031 266.15625 C 444.734375 266.597656 426.613281 265.238281 414.296875 269.710938 C 405.773438 272.804688 395.289062 279.878906 389.277344 286.664062 M 561.132812 264.941406 Z M 561.132812 264.941406 " fill-opacity="1" fill-rule="evenodd"/><path stroke-linecap="round" transform="matrix(-1.147632, 0, 0, 1.14799, 1425.744318, 22.088764)" fill="none" stroke-linejoin="round" d="M 919.30346 263.225859 C 914.453117 253.398904 910.409463 238.66868 903.135651 230.468209 C 897.897281 224.557745 888.761618 218.395482 881.334638 215.700555 C 870.602616 211.804481 854.812624 212.988615 843.399853 212.604112 C 826.823594 212.039266 804.706032 213.924354 788.126369 213.556864 C 777.690474 213.328884 763.809985 212.151555 753.387705 211.545877 C 752.387003 212.733414 751.110597 214.370106 750.048627 215.506602 C 744.711548 221.226516 736.845484 228.113551 731.048899 233.363894 C 724.074617 239.68268 714.755152 248.100924 707.403053 253.970555 C 694.513055 264.267081 677.055226 277.823378 662.834361 286.190581 C 654.124167 291.315025 641.874074 297.092784 632.445688 300.73706 C 617.908276 306.351491 597.815944 311.999948 582.580763 315.280137 C 563.666128 319.353151 537.889536 321.694198 518.688986 324.110105 C 500.472121 326.403514 476.070643 328.547206 457.881007 331.027764 C 442.965778 333.059167 423.09469 335.958254 408.325822 338.864148 C 393.917752 341.695182 374.662743 345.601464 360.676737 350.086203 C 349.117605 353.791727 333.93348 359.671567 323.194651 365.333635 C 315.682577 369.294361 306.066985 375.432805 299.477327 380.792034 C 294.637195 384.728941 288.932512 390.843566 284.71867 395.440594 C 282.809167 397.523037 280.314219 400.350668 278.642978 402.627065 C 275.130309 407.41124 270.977735 414.189389 268.227505 419.446537 C 266.665184 422.437498 263.673289 429.732855 263.673289 429.732855 C 263.812842 430.15819 263.996645 430.726439 264.14641 431.148372 C 265.630445 435.309856 267.553563 440.897065 269.469874 444.874804 C 272.805548 451.78906 277.931594 460.734719 282.570904 466.849344 C 289.293309 475.706534 299.661129 486.537281 308.350901 493.471953 C 320.345713 503.050512 338.249434 513.493353 352.30011 519.672629 C 369.18611 527.104093 393.209772 533.375242 411.287084 537.063753 C 423.74821 539.605558 440.664843 541.541686 453.364232 542.222223 C 483.933303 543.862318 524.93827 542.783666 555.367788 539.459243 C 574.493455 537.366592 599.786715 532.524571 618.425646 527.750603 C 644.991908 520.948636 679.635267 508.906533 705.108926 498.759726 C 716.130266 494.370262 730.54174 487.789469 741.103574 482.382602 C 757.785349 473.83846 779.610189 461.53435 795.19936 451.128939 C 806.288775 443.728099 820.547081 433.016446 830.605159 424.26474 C 839.890587 416.186765 851.545025 404.556387 859.717426 395.355527 C 868.138302 385.879048 878.880534 372.720865 885.745897 362.060252 C 891.767129 352.709673 898.608665 339.459617 902.975675 329.227743 C 906.134354 321.833708 909.463221 311.601834 911.638217 303.860725 C 913.261805 298.072758 914.922835 290.215958 916.046072 284.308896 C 917.240788 278.020734 919.30346 263.229262 919.30346 263.225859 " stroke="#581248" stroke-width="1" stroke-opacity="1" stroke-miterlimit="4"/><path stroke-linecap="round" transform="matrix(-1.147632, 0, 0, 1.14799, 1425.744318, 22.088764)" fill-opacity="1" fill="#8f4a67" fill-rule="evenodd" stroke-linejoin="round" d="M 744.418826 283.829118 C 741.321414 292.32222 736.368959 303.414974 731.644555 311.125458 C 719.452326 331.024361 699.65612 355.59515 682.52505 371.441455 C 661.391172 390.989881 629.089592 412.790885 603.302788 425.588384 C 581.314568 436.497393 549.789043 446.630589 525.792611 451.802671 C 502.109324 456.910101 469.651172 460.312786 445.430092 459.781967 C 429.908996 459.441699 408.996361 457.437517 394.135592 452.94257 C 385.016948 450.182992 373.403356 444.585575 365.401141 439.406689 C 361.476618 436.868285 356.551393 432.921171 353.392714 429.474251 C 349.767721 425.516928 345.223716 419.722155 343.29379 414.716805 C 342.024192 411.4162 341.285578 406.597998 341.482995 403.066011 C 341.588512 401.20134 342.126304 398.690158 342.973838 397.026245 C 344.16515 394.681795 346.728173 392.129781 348.715963 390.408022 C 351.983562 387.576988 357.024514 384.599639 360.952441 382.792813 C 366.149966 380.400725 373.604177 378.457792 379.179518 377.17498 C 388.182435 375.102744 400.473373 373.819932 409.643073 372.680033 C 418.904675 371.529925 431.314744 370.481898 440.603576 369.55977 C 458.939573 367.735931 483.429548 365.711333 501.734912 363.581253 C 519.179126 361.546447 542.55948 359.35852 559.748413 355.741466 C 577.59427 351.988304 601.035891 345.179531 618.153346 338.884564 C 635.587349 332.473905 658.280145 322.289668 674.597719 313.40866 C 685.741593 307.341672 699.945439 298.055744 710.265606 290.671918 C 717.600686 285.42838 727.172029 278.102399 733.802532 271.994579 C 738.686912 267.492826 744.289483 260.571765 749.00708 255.896475 C 750.116702 254.794005 751.658601 253.395502 752.795453 252.323656 C 752.822683 252.333864 747.768115 274.638465 744.418826 283.829118 Z M 744.418826 283.829118 " stroke="#8f4a67" stroke-width="1" stroke-opacity="1" stroke-miterlimit="4"/><path stroke-linecap="round" transform="matrix(-1.147632, 0, 0, 1.14799, 1425.744318, 22.088764)" fill-opacity="1" fill="#34102a" fill-rule="evenodd" stroke-linejoin="round" d="M 853.423894 315.947063 C 859.019658 315.947063 861.133386 318.590949 861.133386 320.884359 C 861.133386 323.181172 859.019658 325.825058 853.423894 325.825058 C 847.824727 325.825058 845.710998 323.181172 845.710998 320.884359 C 845.710998 318.590949 847.824727 315.947063 853.423894 315.947063 Z M 853.423894 315.947063 " stroke="#34102a" stroke-width="1" stroke-opacity="1" stroke-miterlimit="4"/><path stroke-linecap="round" transform="matrix(-1.147632, 0, 0, 1.14799, 1425.744318, 22.088764)" fill-opacity="1" fill="#34102a" fill-rule="evenodd" stroke-linejoin="round" d="M 443.343594 511.074043 C 454.08923 511.074043 457.993331 516.041964 457.993331 520.322542 C 457.993331 524.599717 454.08923 529.567637 443.343594 529.567637 C 432.597958 529.567637 428.690454 524.599717 428.690454 520.322542 C 428.690454 516.041964 432.597958 511.074043 443.343594 511.074043 Z M 443.343594 511.074043 " stroke="#34102a" stroke-width="1" stroke-opacity="1" stroke-miterlimit="4"/><path stroke-linecap="round" transform="matrix(-1.147632, 0, 0, 1.14799, 1425.744318, 22.088764)" fill-opacity="1" fill="#34102a" fill-rule="evenodd" stroke-linejoin="round" d="M 471.669595 499.089786 C 477.551274 499.089786 479.617349 501.757491 479.617349 504.040693 C 479.617349 506.320492 477.551274 508.9916 471.669595 508.9916 C 465.79132 508.9916 463.725244 506.320492 463.725244 504.040693 C 463.725244 501.757491 465.79132 499.089786 471.669595 499.089786 Z M 471.669595 499.089786 " stroke="#34102a" stroke-width="1" stroke-opacity="1" stroke-miterlimit="4"/><path fill="#3a5727" d="M 332.714844 251.046875 C 334.203125 254.527344 336.5625 258.996094 338.210938 262.402344 C 338.207031 262.40625 327.492188 279.007812 323.375 286.402344 C 319.011719 294.238281 313.882812 305.058594 310.058594 313.171875 C 309.207031 314.976562 307.855469 317.316406 307.3125 319.238281 C 305.5625 325.480469 305.617188 334.285156 305.4375 340.765625 C 305.144531 351.292969 305.359375 365.402344 306.757812 375.839844 C 308.066406 385.621094 311.941406 398.269531 314.164062 407.882812 C 314.164062 407.882812 324.234375 402.386719 328.179688 399.472656 C 336.140625 393.582031 346.121094 384.699219 352.402344 377.042969 C 356.40625 372.15625 360.964844 364.953125 363.613281 359.21875 C 367.0625 351.746094 369.21875 340.855469 371.621094 332.984375 C 371.621094 332.984375 376.382812 336.585938 378.628906 337.789062 C 387.542969 342.5625 400.484375 346.828125 410.261719 349.40625 C 420.515625 352.109375 434.585938 354.089844 445.140625 355.132812 C 455.871094 356.195312 470.304688 357.035156 481.070312 356.375 C 490.332031 355.804688 502.460938 353.046875 511.628906 351.621094 C 511.625 351.617188 469.589844 318.316406 453.191406 302.253906 C 447.722656 296.898438 441.207031 289.007812 436.070312 283.328125 C 436.070312 283.328125 455.175781 286.0625 463.402344 286.867188 C 470.574219 287.566406 480.160156 288.660156 487.363281 288.476562 C 496.398438 288.242188 508.46875 286.839844 517.269531 284.773438 C 525 282.960938 535.03125 279.355469 542.261719 276.070312 C 547.910156 273.503906 554.875 268.960938 560.285156 265.914062 C 560.28125 265.914062 537.636719 257.65625 527.707031 254.828125 C 492.511719 244.800781 440.90625 245.914062 408.519531 228.875 C 381.125 214.464844 355.554688 179.765625 332.667969 158.921875 C 329.253906 155.8125 324.671875 151.707031 321.246094 148.617188 C 320.230469 151.003906 318.46875 154.054688 317.851562 156.574219 C 315.964844 164.253906 316.671875 175 316.765625 182.902344 C 316.84375 189.515625 317.160156 198.363281 318.160156 204.894531 C 318.996094 210.375 320.910156 217.546875 322.496094 222.859375 C 325.066406 231.480469 329.183594 242.773438 332.714844 251.046875 M 321.246094 148.617188 Z M 321.246094 148.617188 " fill-opacity="1" fill-rule="evenodd"/><g clip-path="url(#d77bba25b0)"><path stroke-linecap="round" transform="matrix(-1.147632, 0, 0, 1.14799, 1425.744318, 22.088764)" fill="none" stroke-linejoin="round" d="M 947.632865 209.334132 C 949.069247 206.36699 951.125111 202.474318 952.42194 199.442526 C 955.498929 192.235639 959.086481 182.398476 961.326148 174.88875 C 962.70807 170.261098 964.375907 164.013768 965.104309 159.239801 C 965.975669 153.550511 966.251373 145.843429 966.319448 140.082683 C 966.401138 133.199051 967.017216 123.838264 965.373205 117.148585 C 964.835413 114.953853 963.300322 112.296356 962.415347 110.217316 C 959.430259 112.90884 955.437661 116.485062 952.462785 119.193599 C 932.520218 137.350327 910.239276 167.576379 886.368783 180.128885 C 858.148298 194.971397 813.181367 194.001632 782.513587 202.736325 C 773.861257 205.199869 754.129722 212.393146 754.126319 212.393146 C 758.840511 215.04724 764.909396 219.004563 769.831218 221.240127 C 776.131557 224.101785 784.872385 227.242464 791.608405 228.821309 C 799.277052 230.62133 809.794637 231.842894 817.667509 232.047055 C 823.944022 232.206981 832.296823 231.254229 838.546106 230.645149 C 845.714402 229.944196 862.36214 227.562316 862.36214 227.562316 C 857.886209 232.50982 852.208756 239.383244 847.443507 244.048326 C 833.154568 258.040167 796.526822 287.048058 796.523419 287.051461 C 804.512018 288.293441 815.080659 290.695736 823.150949 291.192528 C 832.531682 291.767582 845.108535 291.036005 854.458634 290.110475 C 863.655564 289.201958 875.915869 287.476796 884.850711 285.122138 C 893.370295 282.876366 904.646916 279.160634 912.414272 275.002552 C 914.371427 273.954525 918.520598 270.81725 918.520598 270.81725 C 920.613903 277.67366 922.492773 287.160347 925.498283 293.669683 C 927.806025 298.664825 931.778201 304.939376 935.267044 309.196136 C 940.740272 315.865399 949.436852 323.603105 956.373692 328.734354 C 959.811479 331.272757 968.586345 336.060335 968.586345 336.060335 C 970.523078 327.686327 973.899597 316.668432 975.039853 308.148109 C 976.258395 299.056134 976.445602 286.765635 976.19032 277.595399 C 976.033748 271.950344 976.0814 264.280692 974.556521 258.843201 C 974.0834 257.16908 972.905702 255.130871 972.163685 253.558831 C 968.831415 246.491453 964.362292 237.066016 960.560304 230.240229 C 956.972752 223.798946 947.636268 209.337534 947.632865 209.334132 " stroke="#3a5727" stroke-width="1" stroke-opacity="1" stroke-miterlimit="4"/></g><path fill="#588d3d" d="M 369.203125 52.15625 C 376.265625 59.117188 385.679688 68.398438 392.738281 75.359375 C 392.738281 75.359375 386.832031 84.625 384.660156 88.800781 C 383.28125 91.449219 381.730469 95.125 380.574219 97.878906 C 378.199219 103.546875 374.804688 111.058594 373.222656 116.996094 C 372.171875 120.933594 371.410156 126.34375 371.03125 130.402344 C 370.492188 136.179688 369.910156 143.980469 370.644531 149.738281 C 371.589844 157.136719 374.59375 166.769531 377.542969 173.621094 C 381.824219 183.5625 389.550781 195.957031 396.15625 204.535156 C 397.953125 206.867188 400.828125 209.578125 402.828125 211.738281 C 402.832031 211.734375 417.152344 208.855469 423.371094 208.222656 C 429.980469 207.554688 438.863281 207.261719 445.5 207.519531 C 453.921875 207.847656 465.203125 208.800781 473.417969 210.683594 C 482.804688 212.832031 494.984375 217.257812 503.679688 221.398438 C 510.628906 224.707031 519.339844 230.238281 525.628906 234.675781 C 532.054688 239.210938 539.957031 246.144531 545.921875 251.269531 C 550.648438 255.335938 556.722656 261.007812 561.355469 265.179688 C 561.351562 265.179688 552.261719 268.683594 548.242188 269.78125 C 538.769531 272.363281 525.828125 274.707031 516.0625 275.71875 C 501.550781 277.226562 481.988281 277.613281 467.433594 276.59375 C 458.964844 276 447.839844 273.652344 439.445312 272.394531 C 439.453125 272.402344 492.507812 328.183594 515.25 352.09375 C 515.246094 352.09375 499.273438 351.996094 492.4375 351.625 C 479.550781 350.929688 462.332031 349.789062 449.601562 347.667969 C 437.828125 345.707031 422.210938 342.214844 410.929688 338.324219 C 403.535156 335.777344 394.132812 331.167969 387.121094 327.710938 C 383.53125 325.9375 378.886719 323.289062 375.359375 321.394531 C 375.359375 321.398438 373.972656 332.332031 372.777344 336.890625 C 371.140625 343.148438 369.453125 352.144531 365.320312 357.121094 C 362.367188 360.671875 356.546875 363.546875 352.269531 365.296875 C 348.304688 366.917969 342.617188 368.578125 338.339844 368.402344 C 335.589844 368.292969 331.828125 367.378906 329.515625 365.882812 C 325.046875 362.984375 321.230469 356.492188 318.660156 351.820312 C 315.878906 346.773438 313.601562 339.324219 312.132812 333.75 C 310.757812 328.523438 308.894531 321.390625 309.089844 315.988281 C 309.273438 310.859375 311.46875 304.21875 313.148438 299.371094 C 315.699219 292.007812 320.097656 282.503906 324.109375 275.828125 C 327.921875 269.46875 334.039062 261.621094 338.960938 256.074219 C 344.210938 250.152344 352.308594 243.3125 358.03125 237.84375 C 358.027344 237.839844 349.347656 229.816406 346.214844 225.855469 C 340.773438 218.972656 334.679688 208.839844 330.996094 200.875 C 326.238281 190.578125 320.914062 176.136719 319.355469 164.898438 C 318.371094 157.824219 318.503906 148.101562 319.871094 141.089844 C 322.800781 126.089844 332.039062 107.445312 339.277344 93.984375 C 342.640625 87.738281 348.171875 80.011719 352.28125 74.226562 C 357.113281 67.425781 364.128906 58.777344 369.203125 52.15625 Z M 369.203125 52.15625 " fill-opacity="1" fill-rule="evenodd"/><g clip-path="url(#e5ee9e56a4)"><path stroke-linecap="round" transform="matrix(-1.147632, 0, 0, 1.14799, 1425.744318, 22.088764)" fill="none" stroke-linejoin="round" d="M 900.119929 46.403358 C 906.270504 40.339773 914.47354 32.254993 920.627518 26.191408 C 925.048989 31.95896 931.162122 39.492505 935.37256 45.416579 C 938.953304 50.455956 943.773013 57.186467 946.703641 62.627361 C 953.010788 74.353014 961.060655 90.59403 963.613467 103.660341 C 964.804779 109.768161 964.920507 118.237444 964.062762 124.399707 C 962.704666 134.189232 958.065356 146.76896 953.919589 155.738438 C 950.709854 162.676513 945.400005 171.503078 940.658582 177.498609 C 937.928776 180.948932 930.365645 187.938047 930.362241 187.94145 C 935.348734 192.705209 942.404706 198.663311 946.979345 203.821782 C 951.268069 208.653595 956.59834 215.489589 959.920399 221.02916 C 963.41605 226.844349 967.248671 235.123082 969.471319 241.537144 C 970.934932 245.759876 972.847839 251.544441 973.007815 256.012167 C 973.178002 260.71808 971.554414 266.931383 970.356294 271.484176 C 969.076485 276.339808 967.092099 282.828728 964.668629 287.224998 C 962.428962 291.294609 959.103499 296.949872 955.20961 299.474664 C 953.194591 300.777893 949.91678 301.574121 947.520541 301.669396 C 943.793435 301.822517 938.837577 300.376376 935.382771 298.964261 C 931.655666 297.439858 926.584079 294.935482 924.010845 291.842441 C 920.409678 287.50742 918.939259 279.671036 917.513088 274.219935 C 916.471541 270.249001 915.26321 260.724886 915.26321 260.721483 C 912.189624 262.371785 908.142566 264.678806 905.014521 266.223625 C 898.904791 269.235001 890.711967 273.25017 884.268669 275.46872 C 874.438642 278.857795 860.830452 281.899795 850.571552 283.607943 C 839.478734 285.455601 824.475007 286.449185 813.246039 287.054863 C 807.289477 287.378118 793.371547 287.463185 793.368143 287.463185 C 813.184771 266.63535 859.414493 218.045006 859.4213 218.0382 C 852.106643 219.133865 842.412765 221.178879 835.033437 221.696087 C 822.351068 222.584188 805.305092 222.247322 792.660163 220.933885 C 784.15079 220.05259 772.874169 218.010979 764.620077 215.761804 C 761.11762 214.805649 753.197095 211.753441 753.193691 211.753441 C 757.230538 208.119373 762.523368 203.178674 766.641905 199.636479 C 771.83943 195.172156 778.725214 189.13239 784.324382 185.181872 C 789.804418 181.316422 797.394779 176.49822 803.450048 173.616145 C 811.026794 170.009299 821.639684 166.154057 829.818893 164.28258 C 836.976978 162.642486 846.807006 161.812231 854.145489 161.526405 C 859.928459 161.301828 867.668585 161.557029 873.427728 162.138888 C 878.846497 162.690123 891.324642 165.197902 891.328045 165.201305 C 893.070765 163.31962 895.575924 160.958157 897.141649 158.926754 C 902.897389 151.454457 909.630005 140.657737 913.360514 131.997903 C 915.930344 126.029593 918.547828 117.638572 919.371535 111.193886 C 920.01144 106.178328 919.504281 99.383166 919.034564 94.350595 C 918.7044 90.815205 918.040669 86.102486 917.12506 82.672579 C 915.746542 77.500498 912.788684 70.957134 910.719204 66.019838 C 909.711695 63.620945 908.360406 60.419018 907.158883 58.111998 C 905.266398 54.474527 900.119929 46.403358 900.119929 46.403358 " stroke="#588d3d" stroke-width="1" stroke-opacity="1" stroke-miterlimit="4"/></g><path fill="#9fc939" d="M 392.320312 74.839844 C 385.378906 67.992188 376.121094 58.863281 369.175781 52.015625 C 369.175781 52.015625 368.957031 57.824219 369.285156 60.28125 C 369.757812 63.851562 370.546875 68.777344 372.375 71.878906 C 373.847656 74.375 376.566406 77.59375 379.269531 78.644531 C 381.464844 79.5 384.828125 79.046875 387.125 78.515625 C 388.679688 78.15625 390.621094 77.195312 391.96875 76.34375 C 392.28125 76.144531 392.644531 75.800781 392.933594 75.570312 C 392.933594 75.570312 392.320312 74.839844 392.320312 74.839844 Z M 392.320312 74.839844 " fill-opacity="1" fill-rule="evenodd"/><g clip-path="url(#94fdfab239)"><path stroke-linecap="round" transform="matrix(-1.147632, 0, 0, 1.14799, 1425.744318, 22.088764)" fill="none" stroke-linejoin="round" d="M 920.651345 26.068912 C 914.599479 32.033819 906.532593 39.985894 900.484131 45.950801 C 900.484131 45.950801 899.949742 46.587103 899.949742 46.587103 C 900.201619 46.787861 900.518168 47.087298 900.790468 47.260835 C 901.964762 48.00262 903.656425 48.839681 905.011117 49.152728 C 907.012522 49.615493 909.94315 50.010204 911.856057 49.265016 C 914.211451 48.349694 916.580461 45.545881 917.863674 43.371566 C 919.456629 40.669834 920.144186 36.379048 920.55604 33.268993 C 920.841955 31.128704 920.651345 26.068912 920.651345 26.068912 " stroke="#9fc939" stroke-width="1" stroke-opacity="1" stroke-miterlimit="4"/></g><path fill="#9fc939" d="M 420.539062 223.859375 C 418.191406 224.652344 415.191406 226.046875 412.898438 226.984375 C 412.902344 226.984375 435.429688 233.371094 445.078125 236.132812 C 454.496094 238.824219 467.042969 242.4375 476.449219 245.164062 C 485.257812 247.71875 496.972656 251.214844 505.792969 253.726562 C 513.054688 255.796875 522.757812 258.492188 530.042969 260.472656 C 533.910156 261.523438 539.070312 262.875 542.941406 263.902344 C 536.777344 258.804688 528.902344 251.5625 522.398438 246.902344 C 515.050781 241.632812 504.742188 235.289062 496.710938 231.132812 C 491.261719 228.308594 483.84375 224.695312 477.957031 222.972656 C 471.417969 221.0625 462.328125 219.871094 455.53125 219.4375 C 449.503906 219.054688 441.386719 219.117188 435.414062 219.984375 C 430.851562 220.644531 424.910156 222.382812 420.539062 223.859375 M 542.941406 263.902344 Z M 542.941406 263.902344 " fill-opacity="1" fill-rule="evenodd"/><path stroke-linecap="round" transform="matrix(-1.147632, 0, 0, 1.14799, 1425.744318, 22.088764)" fill="none" stroke-linejoin="round" d="M 882.55318 178.481985 C 880.555179 177.665341 877.9411 176.450582 875.895446 175.759837 C 872.086651 174.473622 866.909548 172.959427 862.933969 172.384373 C 857.729637 171.628977 850.656646 171.574534 845.404661 171.907997 C 839.482137 172.285696 831.561613 173.323515 825.863737 174.987428 C 820.734287 176.488012 814.270567 179.635495 809.522337 182.095637 C 802.524229 185.716094 793.541734 191.242055 787.139282 195.832277 C 781.47204 199.89168 774.610081 206.200259 769.238965 210.640763 C 772.612081 209.745856 777.108433 208.568527 780.478145 207.653205 C 786.826137 205.928044 795.28105 203.580191 801.60862 201.776768 C 809.294286 199.588841 819.50213 196.543438 827.177584 194.318082 C 835.373812 191.943008 846.306655 188.795524 854.513094 186.451074 C 862.920354 184.045375 882.549776 178.481985 882.55318 178.481985 " stroke="#9fc939" stroke-width="1" stroke-opacity="1" stroke-miterlimit="4"/></svg>