<svg xmlns="http://www.w3.org/2000/svg" xmlns:xlink="http://www.w3.org/1999/xlink" width="1920" zoomAndPan="magnify" viewBox="0 0 1440 809.999993" height="1080" preserveAspectRatio="xMidYMid meet" version="1.0"><defs><clipPath id="4986708629"><path d="M 774 554 L 995 554 L 995 764.921875 L 774 764.921875 Z M 774 554 " clip-rule="nonzero"/></clipPath></defs><path fill="#8ea84b" d="M 943.394531 404.375 L 911.445312 436.511719 L 874.476562 470.230469 L 862.539062 491.667969 L 856.78125 516.972656 L 857.046875 543.167969 L 860.425781 557.601562 L 835.582031 566.703125 L 797.078125 564.828125 L 778.992188 557.601562 L 765.941406 546.0625 L 774.671875 521.101562 L 781.621094 488.683594 L 782.683594 456.09375 L 776.316406 420.703125 L 766.320312 394.585938 L 757.292969 356.503906 L 770.199219 349.1875 L 782.699219 371.316406 L 788.597656 398.324219 L 797.875 420.03125 L 804.945312 426.472656 L 802.820312 399.121094 L 799.378906 348.96875 L 816.820312 354.800781 L 818.339844 373.628906 L 824.207031 396.085938 L 825.738281 414.351562 L 831.683594 402.484375 L 837.128906 379.824219 L 845.328125 361.289062 L 860.300781 367.484375 L 854.214844 385.359375 L 846.75 424.550781 L 849.253906 435.917969 L 868.703125 396.523438 L 888.539062 375.117188 L 906.328125 384.765625 L 873.019531 424.769531 L 871.707031 437.277344 L 909.269531 412.195312 L 925.511719 394.023438 Z M 943.394531 404.375 " fill-opacity="1" fill-rule="nonzero"/><path fill="#3c5949" d="M 671.539062 277.21875 C 671.539062 277.21875 671.960938 255.324219 673.101562 252.351562 C 674.917969 247.847656 684.054688 235.304688 685.746094 234.304688 C 688.359375 232.742188 705.253906 224.140625 705.253906 224.140625 L 727.910156 225.875 C 727.910156 225.875 723.449219 207.515625 723.839844 205.359375 C 724.152344 203.652344 730.097656 190.550781 730.992188 188.890625 C 730.992188 188.890625 741.191406 176.613281 743.382812 175.519531 C 752.566406 170.953125 770.730469 170.5625 770.730469 170.5625 L 792.085938 174.378906 L 805.792969 185.714844 L 817.324219 172.3125 C 817.324219 172.3125 840.679688 156.925781 854.339844 161.367188 C 863.726562 164.496094 874.585938 174.128906 874.585938 174.128906 L 880.109375 191.613281 C 880.109375 191.613281 893.5625 182.042969 895.394531 181.148438 C 897.222656 180.257812 913.699219 177.335938 921.347656 178.164062 C 924.242188 178.492188 944.410156 186.84375 953.828125 194.207031 C 955.128906 195.226562 959.398438 209.082031 959.398438 209.082031 L 958.148438 228.582031 C 958.148438 228.582031 975.964844 221.953125 979.941406 221.953125 C 985.949219 222.078125 1007.679688 227.738281 1009.511719 229.550781 C 1012.53125 232.554688 1027.144531 242.0625 1032.335938 251.914062 C 1033.542969 255.996094 1032.773438 283.316406 1028.941406 291.308594 C 1027.160156 295.046875 1014.640625 304.335938 1014.640625 304.335938 C 1014.640625 304.335938 1032.664062 305.257812 1036.734375 306.539062 C 1040.800781 307.824219 1054.960938 322.335938 1057.355469 325.304688 C 1060.09375 328.652344 1057.589844 360.164062 1057.589844 360.164062 L 1043.054688 372.472656 L 1025.171875 377.289062 L 1012.84375 375.726562 L 1016.488281 386.671875 L 1013.796875 401.527344 C 1013.796875 401.527344 1001.984375 420.6875 1000.296875 421.859375 C 994.445312 425.847656 969.003906 427.097656 969.003906 427.097656 L 948.007812 413.835938 L 941.96875 401.792969 L 932.363281 415.148438 L 913.386719 423.359375 C 913.386719 423.359375 890.324219 423.359375 884.707031 421.21875 C 874.960938 417.621094 864.648438 405.75 864.648438 405.75 L 855.933594 388.140625 L 844.265625 400.230469 C 844.265625 400.230469 822.96875 403.828125 818.199219 401.589844 C 812.144531 398.761719 794.089844 392.113281 794.089844 392.113281 L 788.597656 376.960938 C 788.597656 376.960938 781.167969 391.722656 775.644531 394.054688 C 769.386719 396.726562 752.722656 398.496094 741.425781 399.589844 C 737.90625 399.933594 712.234375 382.730469 712.234375 382.730469 L 705.191406 366.328125 L 691.109375 367.328125 C 691.109375 367.328125 673.277344 360.992188 671.601562 359.882812 C 664.609375 355.191406 659.617188 344.417969 659.210938 343.054688 C 657.878906 338.738281 660.460938 324.945312 661.007812 320.113281 C 661.558594 315.28125 669.894531 303.960938 669.894531 303.960938 L 681.535156 294.25 Z M 671.539062 277.21875 " fill-opacity="1" fill-rule="nonzero"/><path fill="#8ea84b" d="M 433.558594 311.777344 L 489.410156 326.339844 L 524.910156 351.125 L 557.78125 396.242188 L 575.851562 438.578125 L 600.710938 433.949219 L 636.023438 415.480469 L 651.011719 403.328125 L 654.0625 392.722656 L 629.75 368.71875 L 606.171875 327.933594 L 600.101562 293.496094 L 602.746094 259.796875 L 618.0625 218.386719 L 603.808594 213.945312 L 590.699219 237.105469 L 582.34375 263.753906 L 580.453125 283.925781 L 576.820312 297.921875 L 569.453125 272.542969 L 566.199219 231.539062 L 549.707031 234.085938 L 546.6875 252.804688 L 552.460938 285.804688 L 560.082031 314.90625 L 549.222656 299.097656 L 537.097656 271.714844 L 532.261719 241.15625 L 522.921875 245.800781 L 520.292969 256.839844 L 530.011719 303.898438 L 511.691406 274.730469 L 492.257812 255.214844 L 478.207031 264.660156 L 513.066406 308.683594 L 518.464844 320.394531 L 475.691406 303.835938 L 454.742188 289.683594 Z M 433.558594 311.777344 " fill-opacity="1" fill-rule="nonzero"/><path fill="#3c5949" d="M 658.695312 117.328125 C 658.695312 117.328125 651.371094 97 649.308594 94.574219 C 646.257812 90.898438 634.160156 81.8125 632.269531 81.390625 C 629.46875 80.765625 612.710938 82.503906 612.710938 82.503906 L 600.851562 87.804688 C 600.851562 87.804688 601.257812 76.683594 600.226562 74.777344 C 597.703125 70.320312 594.960938 66.003906 591.996094 61.828125 C 591.996094 61.828125 576.523438 50.597656 574.300781 49.925781 C 558.65625 44.9375 542.417969 47.472656 542.417969 47.472656 L 517.558594 62.4375 L 510.875 80.625 L 496.292969 71.476562 C 496.292969 71.476562 470.527344 63.9375 459.746094 72.101562 C 454.722656 76.027344 450.003906 80.285156 445.589844 84.878906 L 440.175781 96.1875 C 440.175781 96.1875 430.003906 93.433594 428.082031 93.136719 C 426.15625 92.839844 410.542969 94.886719 403.988281 97.921875 C 401.5 99.078125 386.121094 112.777344 380.050781 122.425781 C 378.203125 125.367188 382.820312 150.578125 382.820312 150.578125 L 365.390625 154.519531 C 365.390625 154.519531 346.316406 167.761719 345.253906 170 C 343.5 173.691406 329.8125 195.476562 328.246094 206.21875 C 328.464844 210.394531 334.503906 241.78125 334.503906 241.78125 L 353.15625 262.519531 C 353.15625 262.519531 335.773438 274.074219 333.503906 279.03125 C 331.234375 283.988281 328.8125 312.359375 328.8125 312.359375 C 328.8125 312.359375 334.617188 333.390625 337.902344 337.957031 C 341.1875 342.523438 357.972656 352.488281 357.972656 352.488281 L 370.097656 350.046875 L 369.097656 363.902344 C 369.097656 363.902344 378.78125 377.976562 380.660156 378.554688 C 387.167969 380.574219 398.074219 382.667969 398.074219 382.667969 C 398.074219 382.667969 421.542969 377.648438 431.242188 372.191406 C 434.855469 370.171875 444.289062 352.265625 444.289062 352.265625 L 444.289062 337.582031 L 473.40625 333.765625 L 492.898438 313.75 L 490.867188 293.636719 L 518.496094 296.0625 C 518.496094 296.0625 541.964844 289.023438 548.222656 282.519531 C 554.480469 276.015625 568.921875 262.394531 568.921875 262.394531 L 577.007812 243.125 C 577.007812 243.125 597.066406 256.464844 602.746094 257.042969 C 609.269531 257.683594 624.648438 254.480469 635.101562 252.195312 C 638.355469 251.476562 655.847656 227.878906 655.847656 227.878906 L 656.925781 210.488281 L 669.769531 207.359375 C 669.769531 207.359375 683.710938 196.210938 684.835938 194.675781 C 689.53125 188.234375 690.640625 176.707031 690.578125 175.332031 C 690.390625 170.90625 683.710938 158.769531 681.675781 154.410156 C 679.644531 150.046875 668.613281 141.898438 668.613281 141.898438 L 655.109375 136.21875 Z M 658.695312 117.328125 " fill-opacity="1" fill-rule="nonzero"/><path fill="#344a3c" d="M 611.273438 131.605469 L 610.035156 141.148438 L 606.8125 147.964844 L 605.640625 136.1875 C 605.640625 136.1875 602.136719 121.191406 601.636719 120.550781 C 599.382812 118.28125 587.289062 113.9375 585.988281 113.761719 C 584.082031 113.496094 572.910156 115.5625 572.910156 115.5625 L 565.242188 119.707031 C 565.242188 119.707031 563.382812 110.152344 562.585938 108.945312 C 561.972656 107.992188 556.230469 100.660156 555.277344 99.875 C 555.277344 99.875 545.3125 93.496094 543.839844 92.980469 C 541.667969 92.214844 523.816406 96.109375 523.816406 96.109375 L 512.863281 103.847656 L 504.570312 122.472656 L 494.089844 114.5 C 494.089844 114.5 474.796875 111.917969 470.855469 115.015625 C 467.492188 117.671875 459.121094 123.945312 459.121094 123.945312 L 453.550781 136.816406 L 452.785156 127.855469 L 456.070312 119.441406 C 458.945312 115.761719 462.152344 112.398438 465.691406 109.351562 C 468.382812 107.132812 485.40625 105.914062 485.40625 105.914062 L 494.089844 108.476562 L 502.976562 115.90625 L 508.921875 100.425781 L 524.847656 88.367188 C 532.253906 87.5 539.597656 87.875 546.875 89.492188 C 548.535156 89.867188 559.265625 94.027344 559.265625 94.027344 C 560.285156 94.902344 566.074219 102.457031 566.746094 103.410156 C 567.605469 104.722656 568.875 113.652344 568.875 113.652344 L 577.589844 107.914062 C 577.589844 107.914062 590.105469 107.320312 592.214844 107.601562 C 593.59375 107.789062 601.117188 110.886719 603.558594 113.355469 C 605.171875 115.03125 611.273438 131.605469 611.273438 131.605469 Z M 611.273438 131.605469 " fill-opacity="1" fill-rule="nonzero"/><path fill="#344a3c" d="M 725.8125 287.789062 L 730.398438 296.25 L 735.839844 301.457031 L 732.710938 290.042969 C 732.710938 290.042969 730.617188 274.792969 730.851562 274.027344 C 732.132812 271.101562 741.878906 262.707031 743.023438 262.078125 C 744.710938 261.15625 755.867188 259.078125 755.867188 259.078125 L 764.535156 260.1875 C 764.535156 260.1875 762.828125 250.601562 763.140625 249.242188 C 763.378906 248.128906 766.113281 239.230469 766.710938 238.152344 C 766.710938 238.152344 773.734375 228.644531 774.90625 227.628906 C 776.675781 226.0625 794.714844 223.34375 794.714844 223.34375 L 807.699219 226.660156 L 822.125 241.0625 L 829.054688 229.769531 C 829.054688 229.769531 846.125 220.386719 850.960938 221.953125 C 855.074219 223.234375 865.121094 226.078125 865.121094 226.078125 L 871.222656 236.777344 L 872.316406 247.066406 L 875.148438 234.648438 L 872.457031 227.472656 L 866.355469 220.777344 C 862.378906 218.394531 858.207031 216.417969 853.839844 214.851562 C 850.523438 213.742188 834.203125 218.699219 834.203125 218.699219 L 827.054688 224.140625 L 821.421875 234.242188 L 810.25 221.953125 L 791.054688 216.398438 C 783.828125 218.25 777.105469 221.230469 770.886719 225.34375 C 769.480469 226.28125 760.953125 234.023438 760.953125 234.023438 C 760.296875 235.195312 757.621094 244.3125 757.355469 245.519531 C 757.023438 247.082031 759.042969 255.839844 759.042969 255.839844 L 748.859375 253.605469 C 748.859375 253.605469 736.921875 257.542969 735.074219 258.546875 C 733.855469 259.21875 727.941406 264.800781 726.546875 267.929688 C 725.640625 270.101562 725.8125 287.789062 725.8125 287.789062 Z M 725.8125 287.789062 " fill-opacity="1" fill-rule="nonzero"/><g clip-path="url(#4986708629)"><path fill="#8ea84b" d="M 867.839844 554.035156 L 864.539062 610.460938 L 845.8125 644.128906 L 818.667969 671.261719 L 796.828125 678.816406 L 774.890625 682.132812 L 775.613281 693.921875 L 787.832031 743.886719 L 797.25 760.261719 L 807.027344 764.875 L 834.03125 745.125 L 849.628906 736.554688 L 885.332031 722.855469 L 917.28125 710.4375 L 950.167969 706.542969 L 992.878906 713.316406 L 994.414062 698.785156 L 969.644531 690.625 L 942.453125 687.699219 L 922.695312 689.746094 L 908.566406 688.933594 L 931.550781 677.003906 L 970.320312 666.039062 L 964.71875 650.683594 L 946.148438 651.371094 L 915.542969 663.226562 L 889.039062 676.109375 L 902.152344 662.660156 L 926.136719 645.773438 L 954.578125 635.292969 L 948.335938 627.226562 L 937.230469 626.800781 L 893.875 645.148438 L 918.390625 621.953125 L 933.425781 599.574219 L 921.675781 587.894531 L 886.035156 629.789062 L 875.804688 637.203125 L 883.535156 592.976562 L 893.140625 570.144531 Z M 867.839844 554.035156 " fill-opacity="1" fill-rule="nonzero"/></g><path fill="#3c5949" d="M 860.191406 471.917969 C 860.191406 471.917969 871.707031 457.03125 874.035156 455.558594 C 877.542969 453.324219 889.996094 449.039062 891.667969 449.195312 C 894.171875 449.414062 907.597656 455.324219 907.597656 455.324219 L 916.011719 462.894531 C 916.011719 462.894531 918.640625 453.511719 920.003906 452.261719 C 923.285156 449.242188 926.710938 446.394531 930.28125 443.722656 C 930.28125 443.722656 946.132812 438.578125 948.164062 438.578125 C 952.851562 438.714844 957.476562 439.332031 962.039062 440.421875 C 966.601562 441.511719 971.003906 443.054688 975.246094 445.050781 L 991.863281 464.097656 L 992.535156 480.957031 L 1007.054688 477.265625 C 1007.054688 477.265625 1030.429688 477.890625 1037.1875 487.558594 C 1040.316406 492.15625 1043.101562 496.957031 1045.542969 501.960938 L 1047.011719 512.765625 C 1047.011719 512.765625 1056.164062 513.203125 1057.855469 513.46875 C 1059.542969 513.734375 1071.933594 519.601562 1076.535156 523.871094 C 1078.289062 525.433594 1087.363281 540.960938 1089.816406 550.566406 C 1090.570312 553.503906 1079.976562 573.210938 1079.976562 573.210938 C 1079.976562 573.210938 1090.148438 578.308594 1093.324219 581.027344 C 1097.046875 584.25 1105.589844 597.105469 1105.839844 599.230469 C 1106.308594 602.765625 1111.878906 624.488281 1110.25 633.792969 C 1108.953125 637.1875 1099.675781 658.109375 1095.574219 661.597656 C 1092.335938 664.367188 1074.53125 673.90625 1074.53125 673.90625 C 1074.53125 673.90625 1085.828125 688.121094 1086.390625 692.84375 C 1086.957031 697.566406 1081.402344 721.714844 1081.402344 721.714844 C 1081.402344 721.714844 1070.949219 737.585938 1067.007812 740.480469 C 1063.066406 743.371094 1046.464844 747.15625 1046.464844 747.15625 L 1037.078125 741.902344 L 1034.214844 753.664062 C 1034.214844 753.664062 1022.433594 762.734375 1020.710938 762.71875 C 1014.78125 762.71875 1005.175781 761.480469 1005.175781 761.480469 C 1005.175781 761.480469 987.136719 751.050781 980.503906 743.9375 C 978.046875 741.292969 975.011719 723.933594 975.011719 723.933594 L 978.972656 711.78125 L 955.863281 700.835938 L 945.066406 679.035156 L 952.140625 662.914062 L 928.578125 657.546875 C 928.578125 657.546875 911.023438 645.445312 907.582031 638.390625 C 904.140625 631.335938 895.816406 616.183594 895.816406 616.183594 L 894.25 598.027344 C 894.25 598.027344 874.054688 603.734375 869.21875 602.71875 C 863.648438 601.515625 851.742188 594.742188 843.699219 590.066406 C 841.199219 588.613281 833.015625 564.390625 833.015625 564.390625 L 836.753906 549.6875 L 826.960938 543.621094 C 826.960938 543.621094 818.386719 530.671875 817.855469 529.109375 C 815.632812 522.492188 817.855469 512.65625 818.277344 511.53125 C 819.605469 507.917969 828.398438 499.644531 831.230469 496.566406 C 834.0625 493.484375 845.40625 489.714844 845.40625 489.714844 L 858.109375 488.621094 Z M 860.191406 471.917969 " fill-opacity="1" fill-rule="nonzero"/><path fill="#344a3c" d="M 905.34375 500.929688 C 905.34375 500.929688 924.304688 490.417969 928.8125 492.65625 C 932.660156 494.5625 945.785156 497.003906 945.785156 497.003906 L 955.082031 511.59375 C 957.570312 509.621094 960.179688 507.816406 962.902344 506.183594 C 964.15625 505.839844 982.070312 506.511719 986.714844 507.964844 C 988.46875 508.511719 994.898438 515.613281 999.761719 521.476562 C 1000.796875 522.695312 1001.03125 532.09375 1000.828125 537.242188 L 1004.707031 529.640625 C 1004.707031 529.640625 1006.085938 517.472656 1004.472656 515.566406 C 999.214844 509.230469 986.839844 500.851562 984.945312 500.238281 C 979.925781 498.675781 968.441406 498.675781 967.082031 499.019531 C 965.71875 499.363281 958.601562 502.320312 958.601562 502.320312 L 953.65625 494.734375 C 950.101562 491.753906 946.289062 489.148438 942.21875 486.914062 C 939.089844 485.351562 922.226562 487.574219 922.226562 487.574219 L 914.292969 491.792969 " fill-opacity="1" fill-rule="nonzero"/><path fill="#344a3c" d="M 393.066406 301.457031 C 393.066406 301.457031 380.050781 284.128906 381.644531 279.375 C 383.007812 275.292969 383.617188 261.96875 383.617188 261.96875 L 396.804688 250.757812 C 396.804688 250.757812 390.90625 244.941406 390.375 243.734375 C 389.84375 242.53125 388.058594 224.703125 388.8125 219.917969 C 389.109375 218.105469 395.273438 210.753906 400.402344 205.125 C 401.484375 203.9375 410.746094 202.417969 415.878906 201.996094 L 407.867188 199.117188 C 407.867188 199.117188 395.617188 199.433594 393.925781 201.292969 C 388.371094 207.359375 381.753906 220.761719 381.410156 222.71875 C 380.535156 227.910156 382.066406 239.277344 382.648438 240.578125 C 383.226562 241.875 387.089844 248.535156 387.089844 248.535156 L 380.269531 254.480469 C 377.773438 258.40625 375.6875 262.539062 374.011719 266.882812 C 372.820312 270.164062 377.40625 286.585938 377.40625 286.585938 L 382.726562 293.890625 " fill-opacity="1" fill-rule="nonzero"/><path fill="#344a3c" d="M 1053.894531 611.257812 L 1046.371094 609.414062 L 1040.269531 609.851562 L 1048.84375 614.183594 C 1048.84375 614.183594 1059.152344 621.21875 1059.480469 621.765625 C 1060.546875 624.144531 1060.296875 634.558594 1060.0625 635.589844 C 1058.511719 638.820312 1056.777344 641.945312 1054.867188 644.976562 L 1049.5 649.558594 C 1052.070312 651.105469 1054.527344 652.824219 1056.867188 654.703125 C 1057.417969 655.4375 1061.265625 661.925781 1061.5625 662.878906 C 1061.5625 662.878906 1063.472656 672.265625 1063.441406 673.546875 C 1063.441406 675.40625 1055.242188 687.777344 1055.242188 687.777344 L 1046.183594 693.78125 L 1027.910156 695.800781 L 1034.089844 697.816406 L 1047.542969 697.816406 L 1061.328125 689.292969 C 1064.148438 683.957031 1066.015625 678.308594 1066.929688 672.34375 C 1067.117188 670.996094 1067.117188 661.660156 1067.117188 661.660156 C 1066.757812 660.628906 1062.71875 654.046875 1062.140625 653.246094 C 1061.40625 652.199219 1055.023438 648.632812 1055.023438 648.632812 L 1061.90625 643.722656 C 1061.90625 643.722656 1066.039062 634.339844 1066.429688 632.777344 C 1066.730469 629.292969 1066.386719 625.871094 1065.394531 622.519531 C 1064.644531 620.734375 1053.894531 611.257812 1053.894531 611.257812 Z M 1053.894531 611.257812 " fill-opacity="1" fill-rule="nonzero"/><path fill="#344a3c" d="M 981.441406 343.824219 L 979.691406 336.222656 L 976.5625 330.96875 L 976.5625 340.570312 C 976.5625 340.570312 974.902344 352.957031 974.542969 353.488281 C 972.898438 355.503906 963.480469 359.960938 962.449219 360.195312 C 958.875 360.269531 955.304688 360.128906 951.746094 359.773438 L 945.222656 357.023438 C 944.988281 360.015625 944.554688 362.984375 943.925781 365.921875 C 943.503906 366.734375 939.433594 373.097656 938.730469 373.816406 C 938.730469 373.816406 931.191406 379.730469 930.03125 380.261719 C 928.34375 381.058594 913.636719 379.335938 913.636719 379.335938 L 904.25 373.925781 L 894.28125 358.539062 L 895.253906 364.964844 L 901.261719 376.992188 L 915.058594 385.484375 C 921.109375 385.605469 927.015625 384.730469 932.769531 382.855469 C 934.070312 382.417969 942.40625 378.164062 942.40625 378.164062 C 943.160156 377.382812 947.242188 370.832031 947.695312 369.953125 C 948.289062 368.828125 948.617188 361.527344 948.617188 361.527344 L 956.113281 365.464844 C 956.113281 365.464844 966.28125 364.980469 967.941406 364.589844 C 971.1875 363.292969 974.09375 361.453125 976.65625 359.070312 C 977.75 357.695312 981.441406 343.824219 981.441406 343.824219 Z M 981.441406 343.824219 " fill-opacity="1" fill-rule="nonzero"/><path fill="#7a8b65" d="M 599.617188 334.1875 L 617.25 377.210938 L 642.890625 398.527344 L 618.140625 368.6875 Z M 599.617188 334.1875 " fill-opacity="1" fill-rule="nonzero"/><path fill="#7a8b65" d="M 587.023438 329.871094 L 600.382812 353.613281 L 606.515625 368.0625 L 600.695312 348.96875 Z M 587.023438 329.871094 " fill-opacity="1" fill-rule="nonzero"/><path fill="#7a8b65" d="M 568.40625 394.835938 L 576.898438 410.394531 L 580.671875 424.28125 L 572.410156 407.800781 Z M 568.40625 394.835938 " fill-opacity="1" fill-rule="nonzero"/><path fill="#7a8b65" d="M 791.179688 452.808594 L 792.554688 477.90625 L 788.613281 507.183594 L 779.132812 538.929688 L 790.992188 513.515625 L 795.480469 489.386719 L 794.433594 467.898438 Z M 791.179688 452.808594 " fill-opacity="1" fill-rule="nonzero"/><path fill="#7a8b65" d="M 798.71875 504.335938 L 789.753906 533.378906 L 783.808594 547.1875 L 797.234375 525.464844 Z M 798.71875 504.335938 " fill-opacity="1" fill-rule="nonzero"/><path fill="#7a8b65" d="M 849.222656 657.375 L 828.664062 672.890625 L 804.976562 683.414062 L 784.40625 687.855469 L 796.027344 688.121094 L 826.695312 680.347656 Z M 849.222656 657.375 " fill-opacity="1" fill-rule="nonzero"/><path fill="#7a8b65" d="M 828.585938 734.019531 L 841.417969 725.417969 L 858.34375 721.480469 L 838.320312 729.21875 Z M 828.585938 734.019531 " fill-opacity="1" fill-rule="nonzero"/><path fill="#7a8b65" d="M 815.335938 746.734375 L 831.730469 735.960938 L 844.421875 732.300781 L 827.882812 740.714844 L 820.75 744.96875 Z M 815.335938 746.734375 " fill-opacity="1" fill-rule="nonzero"/></svg>