<svg xmlns="http://www.w3.org/2000/svg" xmlns:xlink="http://www.w3.org/1999/xlink" width="1920" zoomAndPan="magnify" viewBox="0 0 1440 809.999993" height="1080" preserveAspectRatio="xMidYMid meet" version="1.0"><defs><clipPath id="09c3e7a9ea"><path d="M 1015 272 L 1440 272 L 1440 810 L 1015 810 Z M 1015 272 " clip-rule="nonzero"/></clipPath><clipPath id="002a5bafe4"><path d="M 917.816406 946.25 L 1502.597656 157.667969 L 1932.132812 476.195312 L 1347.351562 1264.777344 Z M 917.816406 946.25 " clip-rule="nonzero"/></clipPath><clipPath id="692950a3a3"><path d="M 917.816406 946.25 L 1502.597656 157.667969 L 1932.132812 476.195312 L 1347.351562 1264.777344 Z M 917.816406 946.25 " clip-rule="nonzero"/></clipPath><clipPath id="931b06a42f"><path d="M 987 232 L 1440 232 L 1440 810 L 987 810 Z M 987 232 " clip-rule="nonzero"/></clipPath><clipPath id="796de39e77"><path d="M 917.816406 946.25 L 1502.597656 157.667969 L 1932.132812 476.195312 L 1347.351562 1264.777344 Z M 917.816406 946.25 " clip-rule="nonzero"/></clipPath><clipPath id="99f6531476"><path d="M 917.816406 946.25 L 1502.597656 157.667969 L 1932.132812 476.195312 L 1347.351562 1264.777344 Z M 917.816406 946.25 " clip-rule="nonzero"/></clipPath><clipPath id="26d1fbf895"><path d="M 975 242 L 1440 242 L 1440 810 L 975 810 Z M 975 242 " clip-rule="nonzero"/></clipPath><clipPath id="b5a6a2781a"><path d="M 877.121094 915.992188 L 1461.902344 127.40625 L 1891.4375 445.933594 L 1306.652344 1234.515625 Z M 877.121094 915.992188 " clip-rule="nonzero"/></clipPath><clipPath id="7f5ee5fd11"><path d="M 877.121094 915.992188 L 1461.902344 127.40625 L 1891.4375 445.933594 L 1306.652344 1234.515625 Z M 877.121094 915.992188 " clip-rule="nonzero"/></clipPath><clipPath id="903eb52cb8"><path d="M 946 202 L 1440 202 L 1440 810 L 946 810 Z M 946 202 " clip-rule="nonzero"/></clipPath><clipPath id="fd1a7c228a"><path d="M 877.121094 915.992188 L 1461.902344 127.40625 L 1891.4375 445.933594 L 1306.652344 1234.515625 Z M 877.121094 915.992188 " clip-rule="nonzero"/></clipPath><clipPath id="d08b9a91d6"><path d="M 877.121094 915.992188 L 1461.902344 127.40625 L 1891.4375 445.933594 L 1306.652344 1234.515625 Z M 877.121094 915.992188 " clip-rule="nonzero"/></clipPath><clipPath id="64e360607f"><path d="M 1105.078125 701.257812 L 1197.328125 701.257812 L 1197.328125 792.757812 L 1105.078125 792.757812 Z M 1105.078125 701.257812 " clip-rule="nonzero"/></clipPath><clipPath id="7c6ce5512a"><path d="M 1111 714 L 1191 714 L 1191 792.757812 L 1111 792.757812 Z M 1111 714 " clip-rule="nonzero"/></clipPath><clipPath id="412dcbc6ea"><path d="M 1294 407 L 1373 407 L 1373 486 L 1294 486 Z M 1294 407 " clip-rule="nonzero"/></clipPath><clipPath id="e73e6471a4"><path d="M 1276.1875 428.902344 L 1343.277344 389.113281 L 1384.210938 458.140625 L 1317.121094 497.925781 Z M 1276.1875 428.902344 " clip-rule="nonzero"/></clipPath><clipPath id="a982dd2c92"><path d="M 1276.1875 428.902344 L 1343.277344 389.113281 L 1384.210938 458.140625 L 1317.121094 497.925781 Z M 1276.1875 428.902344 " clip-rule="nonzero"/></clipPath><clipPath id="fa8ca29717"><path d="M 1276.1875 428.902344 L 1343.277344 389.113281 L 1384.210938 458.140625 L 1317.121094 497.925781 Z M 1276.1875 428.902344 " clip-rule="nonzero"/></clipPath><clipPath id="2034ceb2f5"><path d="M 1298 414 L 1366 414 L 1366 482 L 1298 482 Z M 1298 414 " clip-rule="nonzero"/></clipPath><clipPath id="d3cbadf51b"><path d="M 1276.1875 428.902344 L 1343.277344 389.113281 L 1384.210938 458.140625 L 1317.121094 497.925781 Z M 1276.1875 428.902344 " clip-rule="nonzero"/></clipPath><clipPath id="24f528c363"><path d="M 1276.1875 428.902344 L 1343.277344 389.113281 L 1384.210938 458.140625 L 1317.121094 497.925781 Z M 1276.1875 428.902344 " clip-rule="nonzero"/></clipPath><clipPath id="4162cf5fac"><path d="M 1276.1875 428.902344 L 1343.277344 389.113281 L 1384.210938 458.140625 L 1317.121094 497.925781 Z M 1276.1875 428.902344 " clip-rule="nonzero"/></clipPath><clipPath id="75726c4e57"><path d="M 1313 415 L 1359 415 L 1359 461 L 1313 461 Z M 1313 415 " clip-rule="nonzero"/></clipPath><clipPath id="d8225b6593"><path d="M 1276.1875 428.902344 L 1343.277344 389.113281 L 1384.210938 458.140625 L 1317.121094 497.925781 Z M 1276.1875 428.902344 " clip-rule="nonzero"/></clipPath><clipPath id="faca0f731c"><path d="M 1276.1875 428.902344 L 1343.277344 389.113281 L 1384.210938 458.140625 L 1317.121094 497.925781 Z M 1276.1875 428.902344 " clip-rule="nonzero"/></clipPath><clipPath id="946e62f3b4"><path d="M 1276.1875 428.902344 L 1343.277344 389.113281 L 1384.210938 458.140625 L 1317.121094 497.925781 Z M 1276.1875 428.902344 " clip-rule="nonzero"/></clipPath><clipPath id="9eedb9cf9b"><path d="M 1300 417 L 1362 417 L 1362 474 L 1300 474 Z M 1300 417 " clip-rule="nonzero"/></clipPath><clipPath id="a1a1042d37"><path d="M 1276.1875 428.902344 L 1343.277344 389.113281 L 1384.210938 458.140625 L 1317.121094 497.925781 Z M 1276.1875 428.902344 " clip-rule="nonzero"/></clipPath><clipPath id="3b4bb439ad"><path d="M 1276.1875 428.902344 L 1343.277344 389.113281 L 1384.210938 458.140625 L 1317.121094 497.925781 Z M 1276.1875 428.902344 " clip-rule="nonzero"/></clipPath><clipPath id="ab1601f950"><path d="M 1276.1875 428.902344 L 1343.277344 389.113281 L 1384.210938 458.140625 L 1317.121094 497.925781 Z M 1276.1875 428.902344 " clip-rule="nonzero"/></clipPath><clipPath id="2302f4c9e4"><path d="M 1314 412 L 1329 412 L 1329 426 L 1314 426 Z M 1314 412 " clip-rule="nonzero"/></clipPath><clipPath id="8c1f7f645b"><path d="M 1276.1875 428.902344 L 1343.277344 389.113281 L 1384.210938 458.140625 L 1317.121094 497.925781 Z M 1276.1875 428.902344 " clip-rule="nonzero"/></clipPath><clipPath id="8bfe881f1f"><path d="M 1276.1875 428.902344 L 1343.277344 389.113281 L 1384.210938 458.140625 L 1317.121094 497.925781 Z M 1276.1875 428.902344 " clip-rule="nonzero"/></clipPath><clipPath id="1d289db5ae"><path d="M 1276.1875 428.902344 L 1343.277344 389.113281 L 1384.210938 458.140625 L 1317.121094 497.925781 Z M 1276.1875 428.902344 " clip-rule="nonzero"/></clipPath><clipPath id="e92f25387f"><path d="M 1291 404 L 1356 404 L 1356 463 L 1291 463 Z M 1291 404 " clip-rule="nonzero"/></clipPath><clipPath id="884f1bf0fe"><path d="M 1276.1875 428.902344 L 1343.277344 389.113281 L 1384.210938 458.140625 L 1317.121094 497.925781 Z M 1276.1875 428.902344 " clip-rule="nonzero"/></clipPath><clipPath id="847ea49582"><path d="M 1276.1875 428.902344 L 1343.277344 389.113281 L 1384.210938 458.140625 L 1317.121094 497.925781 Z M 1276.1875 428.902344 " clip-rule="nonzero"/></clipPath><clipPath id="596b3425aa"><path d="M 1276.1875 428.902344 L 1343.277344 389.113281 L 1384.210938 458.140625 L 1317.121094 497.925781 Z M 1276.1875 428.902344 " clip-rule="nonzero"/></clipPath></defs><g clip-path="url(#09c3e7a9ea)"><g clip-path="url(#002a5bafe4)"><g clip-path="url(#692950a3a3)"><path fill="#f7dd80" d="M 1649.035156 857.691406 C 1634.558594 877.210938 1618.902344 897.164062 1602.023438 917.621094 C 1505.785156 1034.242188 1331.105469 1111.90625 1195.703125 1098.285156 C 1122.285156 1090.898438 1067.75 1057.417969 1037.996094 1001.460938 C 1008.550781 946.078125 1008.316406 902.730469 1037.175781 864.992188 C 1062.929688 831.367188 1108.449219 806.035156 1161.15625 776.703125 C 1212.035156 748.390625 1269.703125 716.296875 1317.816406 670.851562 C 1369.113281 622.40625 1404.367188 542.445312 1438.460938 465.121094 C 1478.859375 373.496094 1517.019531 286.957031 1576.976562 274.378906 C 1609.472656 267.566406 1645.277344 282.625 1686.445312 320.417969 C 1775.597656 402.269531 1804.617188 504.019531 1772.6875 622.835938 C 1753.460938 694.386719 1712.8125 771.6875 1649.035156 857.691406 Z M 1044.289062 872.421875 C 1021.082031 903.71875 1017.804688 941.703125 1047.027344 996.65625 C 1075.101562 1049.457031 1126.871094 1081.078125 1196.734375 1088.109375 C 1260.21875 1094.496094 1335.605469 1080.082031 1409.011719 1047.523438 C 1482.808594 1014.796875 1548.554688 966.347656 1594.140625 911.113281 C 1684.429688 801.695312 1739.609375 706.53125 1762.8125 620.183594 C 1777.367188 566.019531 1778.957031 515.164062 1767.53125 469.03125 C 1754.714844 417.261719 1725.105469 369.796875 1679.523438 327.953125 C 1640.964844 292.546875 1608.105469 278.296875 1579.070312 284.386719 C 1524.253906 295.886719 1487.125 380.09375 1447.816406 469.242188 C 1413.3125 547.496094 1377.628906 628.414062 1324.835938 678.285156 C 1275.789062 724.609375 1217.527344 757.03125 1166.121094 785.636719 C 1113.484375 814.933594 1068.253906 840.105469 1044.289062 872.421875 Z M 1044.289062 872.421875 " fill-opacity="1" fill-rule="nonzero"/></g></g></g><g clip-path="url(#931b06a42f)"><g clip-path="url(#796de39e77)"><g clip-path="url(#99f6531476)"><path fill="#f7dd80" d="M 1620.742188 817.601562 C 1606.265625 837.125 1590.609375 857.078125 1573.730469 877.535156 C 1477.492188 994.152344 1302.8125 1071.820312 1167.410156 1058.195312 C 1093.992188 1050.808594 1039.457031 1017.328125 1009.703125 961.375 C 980.253906 905.992188 980.015625 862.644531 1008.882812 824.902344 C 1034.636719 791.277344 1080.15625 765.945312 1132.863281 736.617188 C 1183.742188 708.300781 1241.410156 676.210938 1289.523438 630.765625 C 1340.820312 582.316406 1376.074219 502.359375 1410.167969 425.03125 C 1450.566406 333.410156 1488.726562 246.871094 1548.683594 234.292969 C 1581.179688 227.476562 1616.984375 242.535156 1658.152344 280.328125 C 1747.304688 362.183594 1776.324219 463.929688 1744.394531 582.75 C 1725.167969 654.296875 1684.515625 731.601562 1620.742188 817.601562 Z M 1015.996094 832.332031 C 992.789062 863.628906 989.511719 901.617188 1018.734375 956.570312 C 1046.808594 1009.367188 1098.578125 1040.992188 1168.441406 1048.019531 C 1231.925781 1054.40625 1307.3125 1039.996094 1380.71875 1007.4375 C 1454.515625 974.707031 1520.261719 926.261719 1565.847656 871.023438 C 1656.136719 761.609375 1711.3125 666.445312 1734.519531 580.097656 C 1749.074219 525.929688 1750.664062 475.074219 1739.238281 428.941406 C 1726.421875 377.175781 1696.808594 329.707031 1651.230469 287.863281 C 1612.667969 252.460938 1579.8125 238.210938 1550.777344 244.300781 C 1495.960938 255.796875 1458.832031 340.003906 1419.523438 429.152344 C 1385.019531 507.410156 1349.335938 588.324219 1296.542969 638.199219 C 1247.496094 684.523438 1189.234375 716.945312 1137.828125 745.550781 C 1085.191406 774.84375 1039.960938 800.015625 1015.996094 832.332031 Z M 1015.996094 832.332031 " fill-opacity="1" fill-rule="nonzero"/></g></g></g><g clip-path="url(#26d1fbf895)"><g clip-path="url(#b5a6a2781a)"><g clip-path="url(#7f5ee5fd11)"><path fill="#f7dd80" d="M 1608.339844 827.429688 C 1593.863281 846.949219 1578.207031 866.90625 1561.328125 887.359375 C 1465.089844 1003.980469 1290.410156 1081.648438 1155.007812 1068.023438 C 1081.589844 1060.636719 1027.054688 1027.15625 997.300781 971.203125 C 967.851562 915.820312 967.621094 872.46875 996.480469 834.730469 C 1022.234375 801.105469 1067.753906 775.773438 1120.460938 746.441406 C 1171.339844 718.128906 1229.007812 686.035156 1277.121094 640.589844 C 1328.414062 592.144531 1363.671875 512.183594 1397.765625 434.859375 C 1438.164062 343.238281 1476.324219 256.695312 1536.28125 244.121094 C 1568.777344 237.304688 1604.582031 252.363281 1645.75 290.15625 C 1734.902344 372.007812 1763.921875 473.757812 1731.992188 592.574219 C 1712.765625 664.125 1672.117188 741.425781 1608.339844 827.429688 Z M 1003.59375 842.160156 C 980.386719 873.457031 977.109375 911.445312 1006.332031 966.394531 C 1034.40625 1019.195312 1086.175781 1050.820312 1156.039062 1057.847656 C 1219.523438 1064.234375 1294.910156 1049.824219 1368.316406 1017.265625 C 1442.113281 984.535156 1507.859375 936.089844 1553.445312 880.851562 C 1643.734375 771.4375 1698.914062 676.273438 1722.117188 589.925781 C 1736.671875 535.757812 1738.261719 484.902344 1726.835938 438.769531 C 1714.019531 387 1684.40625 339.535156 1638.828125 297.691406 C 1600.265625 262.285156 1567.410156 248.039062 1538.371094 254.128906 C 1483.558594 265.625 1446.429688 349.832031 1407.121094 438.980469 C 1372.617188 517.234375 1336.933594 598.152344 1284.140625 648.023438 C 1235.09375 694.347656 1176.832031 726.773438 1125.425781 755.378906 C 1072.789062 784.671875 1027.558594 809.84375 1003.59375 842.160156 Z M 1003.59375 842.160156 " fill-opacity="1" fill-rule="nonzero"/></g></g></g><g clip-path="url(#903eb52cb8)"><g clip-path="url(#fd1a7c228a)"><g clip-path="url(#d08b9a91d6)"><path fill="#f7dd80" d="M 1580.046875 787.34375 C 1565.570312 806.863281 1549.914062 826.816406 1533.035156 847.273438 C 1436.796875 963.890625 1262.117188 1041.558594 1126.714844 1027.9375 C 1053.296875 1020.550781 998.761719 987.070312 969.007812 931.113281 C 939.558594 875.730469 939.320312 832.382812 968.1875 794.640625 C 993.9375 761.015625 1039.457031 735.6875 1092.167969 706.355469 C 1143.046875 678.042969 1200.714844 645.949219 1248.828125 600.503906 C 1300.121094 552.054688 1335.378906 472.097656 1369.472656 394.769531 C 1409.871094 303.152344 1448.03125 216.609375 1507.988281 204.03125 C 1540.480469 197.214844 1576.289062 212.273438 1617.453125 250.066406 C 1706.609375 331.921875 1735.628906 433.671875 1703.699219 552.488281 C 1684.472656 624.035156 1643.820312 701.339844 1580.046875 787.34375 Z M 975.300781 802.070312 C 952.09375 833.371094 948.816406 871.355469 978.039062 926.308594 C 1006.113281 979.109375 1057.882812 1010.730469 1127.742188 1017.757812 C 1191.230469 1024.148438 1266.617188 1009.734375 1340.023438 977.175781 C 1413.820312 944.445312 1479.566406 896 1525.152344 840.765625 C 1615.441406 731.347656 1670.617188 636.183594 1693.824219 549.835938 C 1708.378906 495.671875 1709.96875 444.816406 1698.542969 398.679688 C 1685.722656 346.914062 1656.113281 299.449219 1610.535156 257.601562 C 1571.972656 222.199219 1539.117188 207.949219 1510.078125 214.039062 C 1455.265625 225.539062 1418.136719 309.742188 1378.828125 398.894531 C 1344.324219 477.148438 1308.640625 558.0625 1255.84375 607.9375 C 1206.800781 654.261719 1148.539062 686.683594 1097.132812 715.289062 C 1044.496094 744.585938 999.265625 769.753906 975.300781 802.070312 Z M 975.300781 802.070312 " fill-opacity="1" fill-rule="nonzero"/></g></g></g><g clip-path="url(#64e360607f)"><path fill="#733619" d="M 1129.699219 790.875 C 1128.816406 791.832031 1127.5625 792.433594 1126.167969 792.433594 C 1123.519531 792.433594 1121.359375 790.273438 1121.359375 787.601562 C 1121.359375 787.027344 1121.453125 786.488281 1121.632812 785.972656 C 1118.984375 783.359375 1117.039062 780.027344 1116.117188 776.300781 C 1115.914062 776.324219 1115.714844 776.324219 1115.511719 776.324219 C 1112.109375 776.324219 1109.351562 773.554688 1109.351562 770.136719 C 1109.351562 768.234375 1110.210938 766.53125 1111.558594 765.390625 C 1107.644531 762.574219 1105.105469 757.972656 1105.105469 752.769531 C 1105.105469 750.183594 1105.734375 747.738281 1106.859375 745.589844 C 1106.308594 744.25 1106.011719 742.761719 1106.011719 741.21875 C 1106.011719 735.5 1110.152344 730.742188 1115.59375 729.832031 C 1116.167969 723.644531 1120.34375 718.503906 1126.011719 716.574219 C 1128.445312 707.957031 1136.335938 701.652344 1145.691406 701.652344 C 1149.128906 701.652344 1152.375 702.503906 1155.214844 704.011719 C 1156.039062 703.605469 1156.957031 703.378906 1157.933594 703.378906 C 1161.335938 703.378906 1164.09375 706.148438 1164.09375 709.5625 C 1164.09375 710.367188 1163.9375 711.144531 1163.664062 711.851562 C 1164.964844 711.492188 1166.324219 711.300781 1167.734375 711.300781 C 1175.597656 711.300781 1182.078125 717.199219 1183.054688 724.820312 C 1189.023438 725.25 1193.726562 730.238281 1193.726562 736.339844 C 1193.726562 738.640625 1193.058594 740.773438 1191.910156 742.570312 C 1193.476562 744.621094 1194.65625 746.96875 1195.359375 749.523438 C 1196.601562 750.648438 1197.378906 752.28125 1197.378906 754.101562 C 1197.378906 755.660156 1196.804688 757.074219 1195.875 758.164062 C 1195.382812 761.351562 1194.167969 764.300781 1192.390625 766.832031 C 1193.238281 768.113281 1193.738281 769.648438 1193.738281 771.300781 C 1193.738281 775.746094 1190.144531 779.355469 1185.71875 779.355469 C 1184.800781 779.355469 1183.914062 779.199219 1183.105469 778.910156 C 1182.363281 784.582031 1177.542969 788.945312 1171.707031 788.945312 C 1169.617188 788.945312 1167.660156 788.378906 1165.980469 787.410156 C 1163.902344 789.4375 1161.074219 790.695312 1157.949219 790.695312 C 1154.535156 790.695312 1151.46875 789.195312 1149.367188 786.835938 C 1145.785156 789.949219 1141.109375 791.832031 1135.988281 791.832031 C 1133.78125 791.855469 1131.679688 791.507812 1129.699219 790.875 Z M 1129.699219 790.875 " fill-opacity="1" fill-rule="evenodd"/></g><g clip-path="url(#7c6ce5512a)"><path fill="#814022" d="M 1169.75 715.746094 C 1170.503906 714.933594 1171.589844 714.417969 1172.78125 714.417969 C 1175.0625 714.417969 1176.910156 716.273438 1176.910156 718.5625 C 1176.910156 719.054688 1176.828125 719.523438 1176.671875 719.964844 C 1178.953125 722.207031 1180.621094 725.070312 1181.410156 728.285156 C 1181.578125 728.273438 1181.753906 728.261719 1181.933594 728.261719 C 1184.859375 728.261719 1187.234375 730.644531 1187.234375 733.582031 C 1187.234375 735.222656 1186.492188 736.6875 1185.335938 737.65625 C 1188.703125 740.078125 1190.886719 744.035156 1190.886719 748.503906 C 1190.886719 750.734375 1190.335938 752.832031 1189.382812 754.675781 C 1189.859375 755.839844 1190.109375 757.109375 1190.109375 758.429688 C 1190.109375 763.34375 1186.542969 767.429688 1181.875 768.222656 C 1181.386719 773.542969 1177.792969 777.953125 1172.925781 779.605469 C 1170.835938 787.015625 1164.058594 792.433594 1156.015625 792.433594 C 1153.054688 792.433594 1150.273438 791.699219 1147.828125 790.40625 C 1147.125 790.753906 1146.324219 790.957031 1145.488281 790.957031 C 1142.566406 790.957031 1140.191406 788.574219 1140.191406 785.636719 C 1140.191406 784.941406 1140.320312 784.28125 1140.558594 783.671875 C 1139.449219 783.96875 1138.269531 784.136719 1137.0625 784.136719 C 1130.308594 784.136719 1124.734375 779.066406 1123.886719 772.511719 C 1118.769531 772.140625 1114.722656 767.847656 1114.722656 762.613281 C 1114.722656 760.632812 1115.296875 758.800781 1116.285156 757.253906 C 1114.949219 755.492188 1113.933594 753.464844 1113.324219 751.273438 C 1112.265625 750.300781 1111.597656 748.898438 1111.597656 747.339844 C 1111.597656 746.011719 1112.085938 744.789062 1112.898438 743.855469 C 1113.3125 741.109375 1114.363281 738.578125 1115.890625 736.398438 C 1115.164062 735.296875 1114.734375 733.976562 1114.734375 732.550781 C 1114.734375 728.726562 1117.824219 725.625 1121.632812 725.625 C 1122.417969 725.625 1123.171875 725.753906 1123.886719 726.007812 C 1124.519531 721.140625 1128.660156 717.378906 1133.6875 717.378906 C 1135.476562 717.378906 1137.160156 717.855469 1138.613281 718.695312 C 1140.390625 716.945312 1142.828125 715.878906 1145.511719 715.878906 C 1148.449219 715.878906 1151.074219 717.160156 1152.886719 719.199219 C 1155.964844 716.527344 1159.988281 714.894531 1164.378906 714.894531 C 1166.242188 714.894531 1168.054688 715.195312 1169.75 715.746094 Z M 1169.75 715.746094 " fill-opacity="1" fill-rule="evenodd"/></g><path fill="#8f492a" d="M 1167.304688 757.144531 C 1168.042969 757.300781 1168.855469 757.15625 1169.523438 756.667969 C 1170.789062 755.753906 1171.085938 753.980469 1170.167969 752.699219 C 1169.976562 752.421875 1169.738281 752.195312 1169.476562 752.015625 C 1169.84375 749.859375 1169.644531 747.59375 1168.808594 745.484375 C 1168.914062 745.425781 1169.011719 745.363281 1169.105469 745.292969 C 1170.730469 744.117188 1171.109375 741.839844 1169.941406 740.210938 C 1169.285156 739.300781 1168.292969 738.785156 1167.269531 738.699219 C 1168.175781 736.003906 1167.816406 732.921875 1166.039062 730.441406 C 1165.15625 729.207031 1164.023438 728.261719 1162.757812 727.613281 C 1162.554688 726.773438 1162.195312 725.972656 1161.671875 725.226562 C 1159.714844 722.496094 1156.109375 721.644531 1153.199219 723.082031 C 1150.8125 720.324219 1147.050781 719.308594 1143.6875 720.335938 C 1139.582031 717.054688 1133.648438 716.753906 1129.1875 719.976562 C 1127.539062 721.164062 1126.285156 722.6875 1125.4375 724.390625 C 1124.902344 724.472656 1124.390625 724.6875 1123.921875 725.023438 C 1122.300781 726.199219 1121.917969 728.476562 1123.089844 730.105469 C 1123.363281 730.488281 1123.695312 730.8125 1124.078125 731.054688 C 1123.339844 731.328125 1122.621094 731.710938 1121.941406 732.191406 C 1118.183594 734.902344 1117.097656 739.957031 1119.234375 743.9375 C 1116.523438 746.191406 1115.988281 750.207031 1118.0625 753.117188 C 1118.851562 754.222656 1119.902344 755.011719 1121.058594 755.46875 C 1121.011719 756.988281 1121.25 758.511719 1121.789062 759.988281 C 1121.585938 760.957031 1121.761719 762 1122.382812 762.863281 C 1122.910156 763.605469 1123.671875 764.085938 1124.496094 764.277344 C 1125.820312 765.632812 1127.410156 766.625 1129.125 767.226562 C 1129.164062 768.136719 1129.449219 769.035156 1130.011719 769.828125 C 1131.527344 771.949219 1134.472656 772.441406 1136.597656 770.917969 C 1137.039062 770.605469 1137.410156 770.222656 1137.695312 769.804688 C 1139.988281 772.261719 1143.78125 772.691406 1146.574219 770.679688 C 1147.578125 769.957031 1148.316406 769.011719 1148.792969 767.96875 C 1150.476562 768.222656 1152.253906 767.847656 1153.757812 766.769531 C 1155.394531 765.597656 1156.347656 763.820312 1156.539062 761.964844 C 1159.320312 762.214844 1162.195312 761.507812 1164.640625 759.746094 C 1165.691406 759.027344 1166.574219 758.128906 1167.304688 757.144531 Z M 1167.304688 757.144531 " fill-opacity="1" fill-rule="evenodd"/><path fill="#9d5333" d="M 1116.488281 747.101562 C 1118.265625 747.199219 1119.640625 748.730469 1119.53125 750.519531 C 1119.4375 752.304688 1117.910156 753.683594 1116.128906 753.574219 C 1114.351562 753.476562 1112.980469 751.945312 1113.085938 750.160156 C 1113.183594 748.371094 1114.710938 746.992188 1116.488281 747.101562 Z M 1122.40625 754.628906 C 1124.007812 754.710938 1125.234375 756.089844 1125.152344 757.710938 C 1125.070312 759.316406 1123.695312 760.550781 1122.085938 760.464844 C 1120.488281 760.382812 1119.257812 759.003906 1119.339844 757.386719 C 1119.4375 755.769531 1120.808594 754.53125 1122.40625 754.628906 Z M 1151.695312 728.546875 C 1152.863281 728.609375 1153.757812 729.613281 1153.6875 730.789062 C 1153.628906 731.964844 1152.625 732.863281 1151.457031 732.789062 C 1150.285156 732.730469 1149.390625 731.722656 1149.460938 730.550781 C 1149.523438 729.386719 1150.523438 728.488281 1151.695312 728.546875 Z M 1134.796875 719.628906 C 1135.511719 719.667969 1136.058594 720.289062 1136.023438 721.007812 C 1135.988281 721.726562 1135.367188 722.28125 1134.652344 722.242188 C 1133.9375 722.207031 1133.386719 721.585938 1133.421875 720.863281 C 1133.457031 720.144531 1134.078125 719.59375 1134.796875 719.628906 Z M 1177.578125 721.5 C 1178.296875 721.535156 1178.84375 722.160156 1178.808594 722.878906 C 1178.773438 723.597656 1178.152344 724.148438 1177.4375 724.113281 C 1176.71875 724.078125 1176.171875 723.453125 1176.207031 722.734375 C 1176.242188 722.015625 1176.851562 721.464844 1177.578125 721.5 Z M 1167.316406 725.179688 C 1168.03125 725.214844 1168.582031 725.839844 1168.542969 726.558594 C 1168.507812 727.277344 1167.886719 727.828125 1167.171875 727.792969 C 1166.457031 727.757812 1165.90625 727.132812 1165.941406 726.414062 C 1165.980469 725.695312 1166.597656 725.144531 1167.316406 725.179688 Z M 1171.660156 721.175781 C 1172.828125 721.238281 1173.722656 722.242188 1173.652344 723.417969 C 1173.59375 724.59375 1172.589844 725.492188 1171.421875 725.417969 C 1170.25 725.359375 1169.355469 724.351562 1169.429688 723.179688 C 1169.488281 722.003906 1170.488281 721.105469 1171.660156 721.175781 Z M 1173.867188 726.535156 C 1175.644531 726.628906 1177.019531 728.164062 1176.910156 729.949219 C 1176.816406 731.734375 1175.289062 733.113281 1173.507812 733.007812 C 1171.730469 732.910156 1170.359375 731.375 1170.464844 729.589844 C 1170.5625 727.804688 1172.089844 726.4375 1173.867188 726.535156 Z M 1174.738281 749.257812 C 1176.015625 749.332031 1177.007812 750.433594 1176.933594 751.714844 C 1176.863281 753 1175.765625 753.992188 1174.488281 753.921875 C 1173.210938 753.851562 1172.21875 752.746094 1172.292969 751.464844 C 1172.363281 750.171875 1173.460938 749.1875 1174.738281 749.257812 Z M 1180.910156 765.367188 C 1181.636719 765.402344 1182.199219 766.039062 1182.160156 766.769531 C 1182.125 767.5 1181.492188 768.066406 1180.765625 768.027344 C 1180.039062 767.992188 1179.476562 767.359375 1179.511719 766.625 C 1179.546875 765.882812 1180.167969 765.320312 1180.910156 765.367188 Z M 1175.0625 764.851562 C 1175.921875 764.902344 1176.578125 765.644531 1176.527344 766.507812 C 1176.480469 767.371094 1175.742188 768.027344 1174.882812 767.980469 C 1174.023438 767.933594 1173.367188 767.191406 1173.414062 766.328125 C 1173.472656 765.464844 1174.203125 764.804688 1175.0625 764.851562 Z M 1182.4375 751.980469 C 1183.605469 752.039062 1184.5 753.046875 1184.429688 754.222656 C 1184.371094 755.394531 1183.367188 756.296875 1182.199219 756.222656 C 1181.027344 756.164062 1180.132812 755.15625 1180.203125 753.980469 C 1180.265625 752.820312 1181.265625 751.921875 1182.4375 751.980469 Z M 1178.710938 757.0625 C 1180.667969 757.171875 1182.171875 758.859375 1182.066406 760.824219 C 1181.957031 762.792969 1180.277344 764.300781 1178.320312 764.195312 C 1176.363281 764.085938 1174.859375 762.394531 1174.964844 760.429688 C 1175.074219 758.453125 1176.742188 756.953125 1178.710938 757.0625 Z M 1138.542969 780.734375 C 1139.820312 780.804688 1140.808594 781.910156 1140.738281 783.191406 C 1140.667969 784.472656 1139.570312 785.46875 1138.292969 785.394531 C 1137.015625 785.324219 1136.023438 784.222656 1136.097656 782.9375 C 1136.167969 781.644531 1137.265625 780.660156 1138.542969 780.734375 Z M 1128.746094 774.382812 C 1129.722656 774.441406 1130.464844 775.269531 1130.414062 776.25 C 1130.355469 777.234375 1129.53125 777.976562 1128.554688 777.929688 C 1127.574219 777.871094 1126.835938 777.042969 1126.882812 776.058594 C 1126.941406 775.078125 1127.765625 774.332031 1128.746094 774.382812 Z M 1158.234375 772.847656 C 1159.402344 772.90625 1160.296875 773.914062 1160.226562 775.089844 C 1160.167969 776.261719 1159.164062 777.164062 1157.996094 777.089844 C 1156.824219 777.03125 1155.929688 776.023438 1156.003906 774.847656 C 1156.074219 773.675781 1157.0625 772.789062 1158.234375 772.847656 Z M 1146.730469 765.65625 C 1147.707031 765.714844 1148.449219 766.542969 1148.398438 767.527344 C 1148.339844 768.507812 1147.515625 769.25 1146.539062 769.203125 C 1145.558594 769.144531 1144.820312 768.316406 1144.867188 767.332031 C 1144.925781 766.351562 1145.761719 765.609375 1146.730469 765.65625 Z M 1150.023438 773.183594 C 1152.265625 773.304688 1153.984375 775.234375 1153.855469 777.484375 C 1153.734375 779.738281 1151.8125 781.464844 1149.570312 781.332031 C 1147.324219 781.214844 1145.609375 779.285156 1145.738281 777.03125 C 1145.859375 774.789062 1147.78125 773.0625 1150.023438 773.183594 Z M 1138.460938 768.761719 C 1141.300781 768.914062 1143.484375 771.359375 1143.328125 774.226562 C 1143.171875 777.078125 1140.738281 779.273438 1137.886719 779.117188 C 1135.046875 778.960938 1132.863281 776.515625 1133.015625 773.648438 C 1133.183594 770.785156 1135.617188 768.59375 1138.460938 768.761719 Z M 1125.152344 748.792969 C 1126.011719 748.839844 1126.667969 749.582031 1126.621094 750.445312 C 1126.574219 751.308594 1125.832031 751.96875 1124.972656 751.921875 C 1124.113281 751.871094 1123.457031 751.128906 1123.503906 750.265625 C 1123.554688 749.402344 1124.292969 748.742188 1125.152344 748.792969 Z M 1123.457031 738.136719 C 1125.570312 738.257812 1127.195312 740.066406 1127.074219 742.199219 C 1126.953125 744.320312 1125.152344 745.953125 1123.027344 745.832031 C 1120.917969 745.710938 1119.292969 743.902344 1119.414062 741.769531 C 1119.53125 739.636719 1121.347656 738.015625 1123.457031 738.136719 Z M 1123.457031 738.136719 " fill-opacity="1" fill-rule="evenodd"/><path fill="#814022" d="M 1143.148438 708.589844 C 1144.042969 708.902344 1144.523438 709.886719 1144.210938 710.796875 C 1143.902344 711.695312 1142.921875 712.175781 1142.015625 711.863281 C 1141.121094 711.550781 1140.644531 710.570312 1140.953125 709.660156 C 1141.277344 708.746094 1142.253906 708.28125 1143.148438 708.589844 Z M 1155.203125 715.628906 C 1155.847656 715.855469 1156.191406 716.5625 1155.964844 717.210938 C 1155.738281 717.855469 1155.035156 718.203125 1154.390625 717.976562 C 1153.746094 717.75 1153.402344 717.042969 1153.628906 716.394531 C 1153.855469 715.746094 1154.558594 715.398438 1155.203125 715.628906 Z M 1150.285156 707.667969 C 1148.246094 706.949219 1146 708.039062 1145.285156 710.089844 C 1144.570312 712.140625 1145.65625 714.394531 1147.695312 715.101562 C 1149.738281 715.820312 1151.980469 714.726562 1152.683594 712.679688 C 1153.414062 710.628906 1152.339844 708.375 1150.285156 707.667969 Z M 1144.617188 714.441406 C 1145.441406 714.726562 1145.882812 715.640625 1145.597656 716.464844 C 1145.308594 717.292969 1144.402344 717.738281 1143.578125 717.449219 C 1142.753906 717.160156 1142.3125 716.25 1142.601562 715.421875 C 1142.898438 714.597656 1143.792969 714.152344 1144.617188 714.441406 Z M 1139.019531 712.488281 C 1137.839844 712.078125 1136.5625 712.703125 1136.144531 713.878906 C 1135.738281 715.0625 1136.359375 716.347656 1137.527344 716.765625 C 1138.710938 717.171875 1139.988281 716.550781 1140.40625 715.375 C 1140.820312 714.1875 1140.203125 712.894531 1139.019531 712.488281 Z M 1139.019531 712.488281 " fill-opacity="1" fill-rule="evenodd"/><g clip-path="url(#412dcbc6ea)"><g clip-path="url(#e73e6471a4)"><g clip-path="url(#a982dd2c92)"><g clip-path="url(#fa8ca29717)"><path fill="#733619" d="M 1365.578125 467.414062 C 1366.632812 467.730469 1367.804688 467.625 1368.820312 467.023438 C 1370.746094 465.878906 1371.386719 463.382812 1370.238281 461.441406 C 1369.988281 461.023438 1369.6875 460.671875 1369.335938 460.375 C 1370.136719 457.335938 1370.117188 454.078125 1369.179688 450.972656 C 1369.339844 450.90625 1369.488281 450.816406 1369.632812 450.730469 C 1372.109375 449.261719 1372.921875 446.0625 1371.449219 443.582031 C 1370.628906 442.199219 1369.269531 441.335938 1367.800781 441.089844 C 1369.433594 437.355469 1369.300781 432.917969 1367.0625 429.140625 C 1365.945312 427.261719 1364.433594 425.757812 1362.695312 424.683594 C 1362.515625 423.472656 1362.09375 422.265625 1361.425781 421.144531 C 1358.964844 416.992188 1353.90625 415.324219 1349.554688 417.007812 C 1346.476562 412.765625 1341.222656 410.832031 1336.269531 411.878906 C 1330.789062 406.671875 1322.335938 405.496094 1315.53125 409.53125 C 1313.035156 411.011719 1311.039062 413.03125 1309.625 415.351562 C 1308.847656 415.410156 1308.082031 415.644531 1307.371094 416.066406 C 1304.898438 417.53125 1304.085938 420.730469 1305.554688 423.210938 C 1305.902344 423.792969 1306.351562 424.292969 1306.855469 424.6875 C 1305.753906 424.988281 1304.679688 425.433594 1303.65625 426.042969 C 1297.9375 429.433594 1295.765625 436.511719 1298.335938 442.46875 C 1294.179688 445.355469 1292.90625 451.003906 1295.535156 455.433594 C 1296.527344 457.101562 1297.929688 458.363281 1299.539062 459.175781 C 1299.28125 461.335938 1299.433594 463.550781 1300.023438 465.710938 C 1299.605469 467.0625 1299.742188 468.582031 1300.527344 469.902344 C 1301.199219 471.035156 1302.222656 471.816406 1303.371094 472.207031 C 1305.097656 474.308594 1307.253906 475.925781 1309.636719 476.996094 C 1309.570312 478.289062 1309.867188 479.621094 1310.578125 480.820312 C 1312.496094 484.050781 1316.660156 485.121094 1319.878906 483.210938 C 1320.546875 482.816406 1321.125 482.320312 1321.589844 481.761719 C 1324.570312 485.558594 1329.953125 486.648438 1334.199219 484.128906 C 1335.71875 483.230469 1336.898438 481.976562 1337.703125 480.546875 C 1340.085938 481.121094 1342.683594 480.816406 1344.957031 479.464844 C 1347.441406 477.996094 1349.027344 475.582031 1349.539062 472.964844 C 1353.484375 473.683594 1357.695312 473.03125 1361.417969 470.824219 C 1363.027344 469.894531 1364.414062 468.730469 1365.578125 467.414062 Z M 1365.578125 467.414062 " fill-opacity="1" fill-rule="evenodd"/></g></g></g></g><g clip-path="url(#2034ceb2f5)"><g clip-path="url(#d3cbadf51b)"><g clip-path="url(#24f528c363)"><g clip-path="url(#4162cf5fac)"><path fill="#814022" d="M 1304.105469 430.140625 C 1303.207031 429.875 1302.195312 429.96875 1301.328125 430.484375 C 1299.667969 431.464844 1299.125 433.613281 1300.109375 435.273438 C 1300.320312 435.632812 1300.582031 435.933594 1300.886719 436.191406 C 1300.195312 438.800781 1300.214844 441.601562 1301.023438 444.273438 C 1300.898438 444.335938 1300.761719 444.402344 1300.632812 444.480469 C 1298.503906 445.742188 1297.804688 448.5 1299.070312 450.628906 C 1299.777344 451.824219 1300.945312 452.566406 1302.203125 452.769531 C 1300.796875 455.980469 1300.914062 459.792969 1302.839844 463.039062 C 1303.796875 464.660156 1305.101562 465.945312 1306.589844 466.871094 C 1306.742188 467.921875 1307.109375 468.953125 1307.675781 469.910156 C 1309.792969 473.480469 1314.144531 474.90625 1317.878906 473.46875 C 1320.527344 477.121094 1325.039062 478.773438 1329.292969 477.875 C 1334 482.351562 1341.261719 483.363281 1347.113281 479.894531 C 1349.265625 478.617188 1350.972656 476.886719 1352.195312 474.894531 C 1352.855469 474.839844 1353.527344 474.644531 1354.132812 474.285156 C 1356.257812 473.023438 1356.960938 470.265625 1355.695312 468.136719 C 1355.394531 467.628906 1355.015625 467.207031 1354.578125 466.867188 C 1355.515625 466.605469 1356.449219 466.21875 1357.324219 465.699219 C 1362.238281 462.785156 1364.105469 456.699219 1361.898438 451.574219 C 1365.464844 449.097656 1366.558594 444.238281 1364.304688 440.433594 C 1363.453125 439 1362.246094 437.914062 1360.859375 437.21875 C 1361.074219 435.363281 1360.9375 433.453125 1360.4375 431.597656 C 1360.789062 430.4375 1360.671875 429.128906 1360.003906 428 C 1359.429688 427.03125 1358.546875 426.355469 1357.554688 426.027344 C 1356.070312 424.214844 1354.214844 422.832031 1352.164062 421.90625 C 1352.21875 420.792969 1351.964844 419.648438 1351.351562 418.613281 C 1349.703125 415.835938 1346.121094 414.917969 1343.351562 416.558594 C 1342.777344 416.898438 1342.289062 417.320312 1341.875 417.808594 C 1339.320312 414.550781 1334.6875 413.601562 1331.035156 415.769531 C 1329.734375 416.542969 1328.714844 417.617188 1328.019531 418.851562 C 1325.972656 418.347656 1323.742188 418.625 1321.789062 419.78125 C 1319.652344 421.050781 1318.296875 423.113281 1317.855469 425.375 C 1314.464844 424.761719 1310.839844 425.3125 1307.644531 427.207031 C 1306.289062 428.011719 1305.101562 429.011719 1304.105469 430.140625 Z M 1304.105469 430.140625 " fill-opacity="1" fill-rule="evenodd"/></g></g></g></g><g clip-path="url(#75726c4e57)"><g clip-path="url(#d8225b6593)"><g clip-path="url(#faca0f731c)"><g clip-path="url(#946e62f3b4)"><path fill="#8f492a" d="M 1323.710938 459.144531 C 1323.238281 459.574219 1322.585938 459.820312 1321.886719 459.753906 C 1320.578125 459.636719 1319.59375 458.476562 1319.710938 457.152344 C 1319.730469 456.867188 1319.808594 456.601562 1319.921875 456.355469 C 1318.722656 454.949219 1317.894531 453.214844 1317.59375 451.324219 C 1317.492188 451.328125 1317.394531 451.324219 1317.292969 451.3125 C 1315.609375 451.160156 1314.351562 449.671875 1314.5 447.984375 C 1314.585938 447.039062 1315.082031 446.238281 1315.792969 445.734375 C 1313.972656 444.167969 1312.90625 441.777344 1313.132812 439.210938 C 1313.242188 437.933594 1313.660156 436.753906 1314.300781 435.738281 C 1314.085938 435.042969 1314 434.304688 1314.0625 433.539062 C 1314.308594 430.710938 1316.5625 428.539062 1319.300781 428.328125 C 1319.851562 425.296875 1322.144531 422.9375 1325.035156 422.234375 C 1326.609375 418.078125 1330.792969 415.300781 1335.425781 415.71875 C 1337.136719 415.871094 1338.703125 416.433594 1340.050781 417.304688 C 1340.476562 417.132812 1340.945312 417.070312 1341.425781 417.113281 C 1343.113281 417.265625 1344.371094 418.753906 1344.222656 420.441406 C 1344.1875 420.839844 1344.085938 421.21875 1343.910156 421.554688 C 1344.566406 421.4375 1345.253906 421.40625 1345.953125 421.460938 C 1349.855469 421.808594 1352.820312 425.011719 1352.980469 428.820312 C 1355.921875 429.289062 1358.042969 431.972656 1357.785156 434.984375 C 1357.6875 436.125 1357.265625 437.152344 1356.617188 437.980469 C 1357.308594 439.066406 1357.789062 440.273438 1358.035156 441.574219 C 1358.601562 442.191406 1358.917969 443.027344 1358.839844 443.921875 C 1358.777344 444.6875 1358.429688 445.363281 1357.910156 445.859375 C 1357.53125 447.414062 1356.804688 448.820312 1355.8125 449.996094 C 1356.179688 450.675781 1356.359375 451.449219 1356.292969 452.265625 C 1356.101562 454.460938 1354.171875 456.089844 1351.96875 455.898438 C 1351.515625 455.863281 1351.082031 455.746094 1350.691406 455.5625 C 1350.082031 458.335938 1347.507812 460.285156 1344.613281 460.027344 C 1343.574219 459.9375 1342.625 459.570312 1341.832031 459.019531 C 1340.714844 459.925781 1339.261719 460.425781 1337.703125 460.289062 C 1336.007812 460.140625 1334.550781 459.265625 1333.613281 458 C 1331.699219 459.382812 1329.300781 460.109375 1326.765625 459.882812 C 1325.691406 459.816406 1324.660156 459.542969 1323.710938 459.144531 Z M 1323.710938 459.144531 " fill-opacity="1" fill-rule="evenodd"/></g></g></g></g><g clip-path="url(#9eedb9cf9b)"><g clip-path="url(#a1a1042d37)"><g clip-path="url(#3b4bb439ad)"><g clip-path="url(#ab1601f950)"><path fill="#9d5333" d="M 1356.339844 429.933594 C 1355.089844 430.773438 1354.75 432.476562 1355.597656 433.726562 C 1356.4375 434.984375 1358.140625 435.324219 1359.386719 434.480469 C 1360.640625 433.644531 1360.976562 431.9375 1360.128906 430.6875 C 1359.292969 429.433594 1357.585938 429.089844 1356.339844 429.933594 Z M 1355.277344 437.953125 C 1354.148438 438.703125 1353.847656 440.234375 1354.605469 441.375 C 1355.359375 442.503906 1356.886719 442.808594 1358.023438 442.050781 C 1359.152344 441.300781 1359.453125 439.769531 1358.695312 438.632812 C 1357.929688 437.5 1356.398438 437.195312 1355.277344 437.953125 Z M 1322.746094 431.648438 C 1321.921875 432.195312 1321.707031 433.3125 1322.261719 434.132812 C 1322.8125 434.960938 1323.929688 435.183594 1324.75 434.625 C 1325.574219 434.078125 1325.789062 432.960938 1325.234375 432.136719 C 1324.6875 431.320312 1323.574219 431.101562 1322.746094 431.648438 Z M 1331.199219 417.886719 C 1330.691406 418.21875 1330.5625 418.910156 1330.898438 419.414062 C 1331.234375 419.921875 1331.921875 420.054688 1332.425781 419.71875 C 1332.933594 419.386719 1333.0625 418.695312 1332.726562 418.1875 C 1332.390625 417.683594 1331.703125 417.550781 1331.199219 417.886719 Z M 1300.886719 437.695312 C 1300.382812 438.03125 1300.253906 438.71875 1300.589844 439.226562 C 1300.921875 439.730469 1301.613281 439.863281 1302.117188 439.53125 C 1302.621094 439.195312 1302.753906 438.503906 1302.417969 438 C 1302.082031 437.492188 1301.402344 437.355469 1300.886719 437.695312 Z M 1309.9375 435.941406 C 1309.429688 436.273438 1309.300781 436.964844 1309.636719 437.46875 C 1309.972656 437.976562 1310.660156 438.109375 1311.167969 437.773438 C 1311.671875 437.441406 1311.800781 436.75 1311.464844 436.246094 C 1311.128906 435.738281 1310.441406 435.605469 1309.9375 435.941406 Z M 1305.054688 434.90625 C 1304.230469 435.453125 1304.011719 436.570312 1304.570312 437.394531 C 1305.117188 438.21875 1306.234375 438.441406 1307.054688 437.882812 C 1307.878906 437.335938 1308.097656 436.21875 1307.539062 435.398438 C 1306.988281 434.570312 1305.875 434.351562 1305.054688 434.90625 Z M 1305.746094 439.753906 C 1304.496094 440.589844 1304.15625 442.296875 1305.003906 443.546875 C 1305.84375 444.800781 1307.546875 445.144531 1308.792969 444.300781 C 1310.046875 443.460938 1310.382812 441.757812 1309.535156 440.507812 C 1308.699219 439.25 1307.007812 438.914062 1305.746094 439.753906 Z M 1314.90625 456.625 C 1314.007812 457.226562 1313.761719 458.453125 1314.367188 459.355469 C 1314.972656 460.253906 1316.199219 460.503906 1317.097656 459.902344 C 1317.992188 459.296875 1318.238281 458.070312 1317.636719 457.171875 C 1317.027344 456.261719 1315.804688 456.019531 1314.90625 456.625 Z M 1317.355469 470.980469 C 1316.839844 471.320312 1316.707031 472.023438 1317.046875 472.539062 C 1317.390625 473.054688 1318.089844 473.191406 1318.605469 472.851562 C 1319.117188 472.511719 1319.253906 471.808594 1318.914062 471.292969 C 1318.566406 470.769531 1317.863281 470.632812 1317.355469 470.980469 Z M 1321.378906 468.089844 C 1320.773438 468.496094 1320.617188 469.316406 1321.023438 469.925781 C 1321.429688 470.53125 1322.25 470.691406 1322.855469 470.285156 C 1323.457031 469.878906 1323.617188 469.054688 1323.210938 468.449219 C 1322.804688 467.84375 1321.980469 467.683594 1321.378906 468.089844 Z M 1310.480469 461.917969 C 1309.65625 462.46875 1309.4375 463.585938 1309.996094 464.40625 C 1310.542969 465.234375 1311.660156 465.453125 1312.480469 464.898438 C 1313.304688 464.347656 1313.523438 463.230469 1312.964844 462.410156 C 1312.410156 461.597656 1311.304688 461.371094 1310.480469 461.917969 Z M 1315.375 464.003906 C 1314 464.925781 1313.632812 466.800781 1314.558594 468.183594 C 1315.480469 469.5625 1317.355469 469.933594 1318.734375 469.011719 C 1320.109375 468.089844 1320.476562 466.214844 1319.550781 464.832031 C 1318.621094 463.441406 1316.761719 463.074219 1315.375 464.003906 Z M 1354.78125 463.867188 C 1353.882812 464.46875 1353.640625 465.695312 1354.242188 466.597656 C 1354.847656 467.496094 1356.074219 467.746094 1356.972656 467.144531 C 1357.871094 466.539062 1358.117188 465.3125 1357.511719 464.410156 C 1356.902344 463.503906 1355.679688 463.261719 1354.78125 463.867188 Z M 1359.171875 455.027344 C 1358.488281 455.492188 1358.304688 456.414062 1358.761719 457.105469 C 1359.230469 457.792969 1360.148438 457.976562 1360.839844 457.519531 C 1361.523438 457.054688 1361.707031 456.136719 1361.25 455.441406 C 1360.78125 454.753906 1359.855469 454.574219 1359.171875 455.027344 Z M 1337.066406 466.632812 C 1336.242188 467.179688 1336.023438 468.296875 1336.582031 469.117188 C 1337.128906 469.945312 1338.246094 470.167969 1339.066406 469.609375 C 1339.890625 469.0625 1340.109375 467.945312 1339.550781 467.121094 C 1338.992188 466.300781 1337.890625 466.085938 1337.066406 466.632812 Z M 1342.335938 456.449219 C 1341.648438 456.914062 1341.46875 457.835938 1341.925781 458.527344 C 1342.394531 459.214844 1343.3125 459.398438 1344.003906 458.941406 C 1344.6875 458.476562 1344.871094 457.558594 1344.414062 456.863281 C 1343.945312 456.175781 1343.019531 455.996094 1342.335938 456.449219 Z M 1343.183594 463.335938 C 1341.601562 464.390625 1341.183594 466.53125 1342.25 468.109375 C 1343.304688 469.695312 1345.445312 470.121094 1347.019531 469.054688 C 1348.601562 468 1349.019531 465.859375 1347.953125 464.28125 C 1346.902344 462.703125 1344.761719 462.28125 1343.183594 463.335938 Z M 1349.6875 455.136719 C 1347.6875 456.472656 1347.152344 459.191406 1348.5 461.203125 C 1349.839844 463.207031 1352.554688 463.75 1354.5625 462.40625 C 1356.5625 461.070312 1357.097656 458.351562 1355.75 456.339844 C 1354.394531 454.332031 1351.679688 453.789062 1349.6875 455.136719 Z M 1350.765625 434.898438 C 1350.164062 435.304688 1350.003906 436.125 1350.410156 436.734375 C 1350.816406 437.339844 1351.640625 437.5 1352.242188 437.09375 C 1352.847656 436.6875 1353.003906 435.863281 1352.597656 435.257812 C 1352.191406 434.652344 1351.371094 434.492188 1350.765625 434.898438 Z M 1347.410156 426.433594 C 1345.925781 427.429688 1345.527344 429.445312 1346.53125 430.941406 C 1347.53125 432.429688 1349.542969 432.835938 1351.039062 431.832031 C 1352.523438 430.835938 1352.921875 428.820312 1351.917969 427.324219 C 1350.910156 425.824219 1348.894531 425.433594 1347.410156 426.433594 Z M 1347.410156 426.433594 " fill-opacity="1" fill-rule="evenodd"/></g></g></g></g><g clip-path="url(#2302f4c9e4)"><g clip-path="url(#8c1f7f645b)"><g clip-path="url(#8bfe881f1f)"><g clip-path="url(#1d289db5ae)"><path fill="#814022" d="M 1320.371094 413.472656 C 1319.851562 414.085938 1319.929688 415.003906 1320.546875 415.53125 C 1321.160156 416.050781 1322.078125 415.976562 1322.601562 415.359375 C 1323.121094 414.746094 1323.042969 413.828125 1322.425781 413.300781 C 1321.800781 412.777344 1320.886719 412.859375 1320.371094 413.472656 Z M 1314.632812 423.78125 C 1314.261719 424.222656 1314.316406 424.886719 1314.757812 425.257812 C 1315.203125 425.628906 1315.863281 425.578125 1316.234375 425.136719 C 1316.605469 424.691406 1316.550781 424.03125 1316.109375 423.65625 C 1315.664062 423.285156 1315.003906 423.335938 1314.632812 423.78125 Z M 1314.78125 415.882812 C 1315.957031 414.480469 1318.058594 414.304688 1319.460938 415.480469 C 1320.863281 416.660156 1321.042969 418.765625 1319.863281 420.160156 C 1318.691406 421.5625 1316.589844 421.738281 1315.195312 420.554688 C 1313.78125 419.378906 1313.59375 417.28125 1314.78125 415.882812 Z M 1321.820312 418.351562 C 1321.34375 418.917969 1321.417969 419.769531 1321.980469 420.246094 C 1322.546875 420.722656 1323.394531 420.652344 1323.871094 420.089844 C 1324.347656 419.523438 1324.273438 418.671875 1323.710938 418.195312 C 1323.136719 417.726562 1322.296875 417.789062 1321.820312 418.351562 Z M 1325.050781 414.519531 C 1325.734375 413.714844 1326.929688 413.617188 1327.738281 414.289062 C 1328.546875 414.976562 1328.648438 416.175781 1327.976562 416.984375 C 1327.292969 417.789062 1326.097656 417.886719 1325.285156 417.214844 C 1324.472656 416.535156 1324.367188 415.324219 1325.050781 414.519531 Z M 1325.050781 414.519531 " fill-opacity="1" fill-rule="evenodd"/></g></g></g></g><g clip-path="url(#e92f25387f)"><g clip-path="url(#884f1bf0fe)"><g clip-path="url(#847ea49582)"><g clip-path="url(#596b3425aa)"><path fill="#ff0000" d="M 1355.136719 423.871094 C 1356.355469 425.925781 1355.675781 428.597656 1353.628906 429.8125 L 1352.839844 430.28125 C 1350.789062 431.496094 1348.121094 430.8125 1346.902344 428.757812 L 1342.519531 421.367188 C 1341.300781 419.316406 1338.644531 418.632812 1336.589844 419.839844 L 1335.800781 420.308594 C 1334.777344 420.914062 1334.109375 421.804688 1333.808594 422.960938 C 1333.511719 424.121094 1333.667969 425.21875 1334.277344 426.246094 L 1334.335938 426.339844 C 1335.554688 428.394531 1334.875 431.066406 1332.824219 432.28125 L 1332.035156 432.75 C 1329.988281 433.964844 1327.316406 433.277344 1326.097656 431.226562 L 1326.03125 431.113281 C 1324.8125 429.058594 1322.15625 428.375 1320.101562 429.582031 L 1319.523438 429.925781 C 1318.203125 430.707031 1317.34375 431.851562 1316.96875 433.335938 C 1316.589844 434.816406 1316.789062 436.238281 1317.574219 437.5625 L 1319.859375 441.417969 C 1321.078125 443.472656 1320.398438 446.144531 1318.351562 447.359375 L 1317.5625 447.828125 C 1315.511719 449.042969 1312.84375 448.355469 1311.625 446.300781 L 1311.390625 445.910156 C 1310.175781 443.855469 1307.515625 443.175781 1305.464844 444.378906 L 1304.671875 444.847656 C 1303.648438 445.457031 1302.980469 446.347656 1302.679688 447.5 C 1302.382812 448.664062 1302.542969 449.757812 1303.148438 450.785156 L 1305.789062 455.234375 C 1307.003906 457.285156 1306.328125 459.960938 1304.277344 461.175781 L 1303.488281 461.644531 C 1301.441406 462.859375 1298.769531 462.171875 1297.550781 460.117188 C 1294.796875 455.46875 1295.605469 456.835938 1292.847656 452.191406 C 1291.015625 449.101562 1291.1875 446.105469 1294.007812 442.988281 C 1295.195312 441.683594 1295.535156 440 1295.199219 438.269531 C 1294.199219 433.121094 1296.222656 427.710938 1300.632812 424.542969 C 1302.433594 423.25 1303.292969 421.175781 1302.945312 418.984375 C 1302.597656 416.835938 1303.566406 414.59375 1305.542969 413.417969 C 1305.832031 413.25 1306.125 413.109375 1306.433594 413 C 1307.492188 412.605469 1308.289062 412.015625 1308.976562 411.113281 C 1310.335938 409.332031 1312.054688 407.78125 1314.105469 406.566406 C 1320.578125 402.726562 1328.472656 403.398438 1334.164062 407.632812 C 1335.277344 408.464844 1336.496094 408.835938 1337.894531 408.761719 C 1342.429688 408.519531 1346.941406 410.546875 1349.738281 414.40625 Z M 1355.136719 423.871094 " fill-opacity="1" fill-rule="evenodd"/></g></g></g></g></svg>