<svg xmlns="http://www.w3.org/2000/svg" xmlns:xlink="http://www.w3.org/1999/xlink" width="1920" zoomAndPan="magnify" viewBox="0 0 1440 809.999993" height="1080" preserveAspectRatio="xMidYMid meet" version="1.0"><defs><clipPath id="ea226f7f9e"><path d="M 295.054688 22.550781 L 1144.804688 22.550781 L 1144.804688 763 L 295.054688 763 Z M 295.054688 22.550781 " clip-rule="nonzero"/></clipPath></defs><g clip-path="url(#ea226f7f9e)"><path fill="#6db744" d="M 440.050781 294.761719 L 477.523438 336.769531 C 494.179688 355.441406 484.378906 385.140625 459.886719 390.230469 C 458.941406 390.429688 458.011719 390.507812 457.078125 390.621094 C 455.621094 405.292969 446.742188 419.203125 431.226562 425.753906 C 429.742188 426.378906 428.246094 426.84375 426.753906 427.296875 C 426.425781 428.328125 426.160156 429.363281 425.75 430.394531 C 419.449219 446.117188 405.585938 455.257812 390.859375 456.910156 C 390.855469 456.9375 390.855469 456.964844 390.847656 456.988281 C 386.203125 481.574219 356.691406 491.910156 337.726562 475.589844 L 295.054688 438.878906 L 338.949219 423.507812 L 306.929688 382.734375 L 373.269531 373.230469 L 381.4375 307.785156 L 424.90625 340.683594 Z M 643.945312 52.890625 L 636.539062 22.570312 L 609.261719 48.671875 L 576.378906 28.902344 L 575.855469 58.578125 L 550.816406 49.535156 L 556.488281 81.261719 C 559.011719 95.359375 575.84375 101.445312 586.792969 92.210938 C 586.804688 92.203125 586.816406 92.191406 586.824219 92.179688 C 593.960938 96.773438 603.417969 97.726562 611.898438 93.027344 C 612.453125 92.71875 612.945312 92.355469 613.460938 92.015625 C 614.285156 92.355469 615.117188 92.6875 616.003906 92.945312 C 625.261719 95.648438 634.226562 92.683594 640.179688 86.695312 C 640.632812 86.980469 641.074219 87.285156 641.566406 87.539062 C 654.277344 94.136719 669.359375 84.492188 668.714844 70.183594 L 667.265625 37.988281 Z M 1033.9375 734.5625 L 1065.933594 739.882812 L 1052.15625 703.140625 L 1084.492188 679.792969 L 1056.355469 667.15625 L 1075.234375 646.925781 L 1042.609375 639.375 C 1028.109375 636.015625 1015.414062 649.617188 1019.753906 663.859375 C 1019.757812 663.871094 1019.765625 663.886719 1019.773438 663.902344 C 1012.464844 668.839844 1007.6875 677.488281 1008.710938 687.519531 C 1008.777344 688.171875 1008.921875 688.792969 1009.035156 689.425781 C 1008.375 690.074219 1007.71875 690.734375 1007.105469 691.476562 C 1000.738281 699.21875 999.902344 709.003906 1003.1875 717.132812 C 1002.726562 717.453125 1002.261719 717.75 1001.816406 718.117188 C 990.316406 727.570312 993.359375 745.929688 1007.289062 751.164062 L 1038.636719 762.945312 Z M 1098.738281 274.855469 L 1131.628906 231.378906 L 1066.199219 223.207031 L 1056.703125 156.847656 L 1015.9375 188.875 L 1000.574219 144.972656 L 963.863281 187.652344 C 947.550781 206.621094 957.878906 236.140625 982.460938 240.789062 C 982.484375 240.792969 982.515625 240.792969 982.539062 240.800781 C 984.1875 255.53125 993.328125 269.394531 1009.046875 275.699219 C 1010.078125 276.113281 1011.109375 276.378906 1012.144531 276.703125 C 1012.59375 278.195312 1013.058594 279.691406 1013.6875 281.175781 C 1020.238281 296.699219 1034.144531 305.582031 1048.808594 307.035156 C 1048.921875 307.96875 1049 308.898438 1049.199219 309.847656 C 1054.289062 334.347656 1083.980469 344.148438 1102.644531 327.488281 L 1144.640625 290.007812 Z M 1098.738281 274.855469 " fill-opacity="1" fill-rule="nonzero"/></g><path fill="#e13c43" d="M 409.40625 408.683594 L 477.9375 340.128906 C 514.566406 303.492188 577.109375 320.257812 590.515625 370.304688 L 615.601562 463.949219 L 654.449219 608.980469 C 661.738281 636.191406 636.847656 661.089844 609.644531 653.800781 L 464.65625 614.941406 L 371.035156 589.847656 C 321 576.433594 304.242188 513.875 340.871094 477.234375 Z M 557.292969 83.125 C 527.789062 86.148438 512.625 119.976562 529.984375 144.023438 L 562.476562 189.015625 L 612.792969 258.691406 C 622.234375 271.765625 642.285156 269.714844 648.878906 255 L 684.046875 176.570312 L 706.753906 125.929688 C 718.890625 98.867188 697.183594 68.808594 667.6875 71.828125 L 612.492188 77.480469 Z M 962.226562 190.800781 C 925.597656 154.160156 863.054688 170.925781 849.648438 220.972656 L 824.5625 314.617188 L 785.710938 459.648438 C 778.425781 486.863281 803.316406 511.761719 830.519531 504.46875 L 975.507812 465.609375 L 1069.128906 440.515625 C 1119.164062 427.105469 1135.921875 364.546875 1099.292969 327.90625 L 1030.757812 259.351562 Z M 1040.503906 639.378906 C 1049.679688 609.949219 1023.570312 581.609375 993.5 588.375 L 937.234375 601.027344 L 850.097656 620.621094 C 833.75 624.296875 827.511719 644.300781 838.867188 656.621094 L 899.402344 722.308594 L 938.488281 764.726562 C 959.378906 787.390625 996.964844 778.9375 1006.144531 749.511719 L 1023.324219 694.441406 Z M 1040.503906 639.378906 " fill-opacity="1" fill-rule="nonzero"/><path fill="#ad1f24" d="M 365.320312 537.386719 C 368.445312 540.511719 368.445312 545.582031 365.320312 548.710938 C 362.195312 551.839844 357.125 551.835938 353.996094 548.710938 C 350.867188 545.585938 350.871094 540.515625 353.996094 537.386719 C 357.125 534.257812 362.195312 534.257812 365.320312 537.386719 Z M 419.175781 547.441406 C 414.871094 551.75 414.871094 558.726562 419.175781 563.035156 C 423.484375 567.339844 430.460938 567.339844 434.765625 563.035156 C 439.070312 558.726562 439.070312 551.75 434.765625 547.441406 C 430.460938 543.136719 423.484375 543.136719 419.175781 547.441406 Z M 410.882812 473.183594 C 408.816406 475.25 408.816406 478.601562 410.882812 480.671875 C 412.949219 482.738281 416.300781 482.738281 418.367188 480.671875 C 420.433594 478.601562 420.433594 475.25 418.367188 473.183594 C 416.300781 471.113281 412.949219 471.113281 410.882812 473.183594 Z M 498.257812 447.519531 C 503.199219 452.460938 511.210938 452.460938 516.152344 447.519531 C 521.097656 442.574219 521.097656 434.5625 516.152344 429.617188 C 511.210938 424.671875 503.199219 424.671875 498.257812 429.617188 C 493.3125 434.5625 493.3125 442.578125 498.257812 447.519531 Z M 576.589844 437.472656 C 573.96875 440.09375 573.96875 444.347656 576.589844 446.96875 C 579.214844 449.59375 583.464844 449.59375 586.085938 446.96875 C 588.710938 444.34375 588.710938 440.089844 586.085938 437.472656 C 583.464844 434.851562 579.214844 434.851562 576.589844 437.472656 Z M 504.171875 368.585938 C 507.28125 371.699219 512.332031 371.699219 515.441406 368.585938 C 518.554688 365.476562 518.554688 360.425781 515.441406 357.3125 C 512.332031 354.203125 507.28125 354.203125 504.171875 357.3125 C 501.058594 360.425781 501.058594 365.472656 504.171875 368.585938 Z M 502.214844 495.566406 C 498.652344 499.128906 498.652344 504.90625 502.214844 508.46875 C 505.773438 512.03125 511.550781 512.03125 515.113281 508.46875 C 518.671875 504.90625 518.671875 499.128906 515.113281 495.566406 C 511.550781 492.003906 505.773438 492.003906 502.214844 495.566406 Z M 502.273438 560.03125 C 498.945312 563.359375 498.945312 568.761719 502.273438 572.089844 C 505.597656 575.417969 510.996094 575.417969 514.324219 572.089844 C 517.652344 568.761719 517.652344 563.359375 514.324219 560.03125 C 510.996094 556.703125 505.597656 556.703125 502.273438 560.03125 Z M 584.988281 578.117188 C 580.753906 573.878906 573.886719 573.878906 569.652344 578.117188 C 565.414062 582.355469 565.414062 589.222656 569.652344 593.460938 C 573.886719 597.699219 580.753906 597.699219 584.988281 593.460938 C 589.226562 589.222656 589.226562 582.355469 584.988281 578.117188 Z M 575.496094 524.785156 C 573.074219 527.207031 573.074219 531.128906 575.496094 533.550781 C 577.917969 535.972656 581.839844 535.972656 584.261719 533.550781 C 586.683594 531.128906 586.683594 527.207031 584.261719 524.785156 C 581.839844 522.359375 577.914062 522.359375 575.496094 524.785156 Z M 561.890625 392.265625 C 563.957031 390.199219 563.957031 386.84375 561.890625 384.777344 C 559.824219 382.710938 556.472656 382.710938 554.402344 384.777344 C 552.335938 386.84375 552.335938 390.199219 554.402344 392.265625 C 556.472656 394.332031 559.824219 394.332031 561.890625 392.265625 Z M 435.496094 407.640625 C 433.210938 409.929688 433.210938 413.640625 435.496094 415.929688 C 437.785156 418.214844 441.496094 418.214844 443.78125 415.929688 C 446.070312 413.640625 446.070312 409.929688 443.78125 407.640625 C 441.492188 405.355469 437.785156 405.355469 435.496094 407.640625 Z M 621.996094 622.929688 C 619.910156 625.015625 619.910156 628.390625 621.996094 630.476562 C 624.082031 632.5625 627.457031 632.5625 629.539062 630.476562 C 631.625 628.390625 631.625 625.015625 629.539062 622.929688 C 627.460938 620.84375 624.082031 620.84375 621.996094 622.929688 Z M 902.09375 215.253906 C 898.96875 218.382812 893.902344 218.382812 890.773438 215.253906 C 887.640625 212.128906 887.644531 207.058594 890.773438 203.929688 C 893.898438 200.800781 898.964844 200.800781 902.09375 203.929688 C 905.21875 207.058594 905.21875 212.128906 902.09375 215.253906 Z M 911.90625 269.128906 C 907.601562 264.820312 900.625 264.820312 896.320312 269.128906 C 892.015625 273.433594 892.015625 280.414062 896.320312 284.722656 C 900.625 289.027344 907.601562 289.027344 911.90625 284.722656 C 916.214844 280.417969 916.214844 273.433594 911.90625 269.128906 Z M 966.277344 260.828125 C 964.210938 258.761719 960.859375 258.761719 958.792969 260.828125 C 956.726562 262.898438 956.726562 266.25 958.792969 268.316406 C 960.859375 270.386719 964.210938 270.386719 966.277344 268.316406 C 968.34375 266.25 968.34375 262.898438 966.277344 260.828125 Z M 946.738281 350.835938 C 941.796875 355.78125 941.796875 363.792969 946.738281 368.738281 C 951.683594 373.683594 959.695312 373.683594 964.636719 368.738281 C 969.578125 363.792969 969.578125 355.78125 964.636719 350.835938 C 959.695312 345.890625 951.683594 345.890625 946.738281 350.835938 Z M 1015.40625 378.476562 C 1012.78125 375.851562 1008.53125 375.851562 1005.910156 378.476562 C 1003.289062 381.101562 1003.289062 385.351562 1005.910156 387.972656 C 1008.535156 390.597656 1012.785156 390.597656 1015.40625 387.972656 C 1018.023438 385.351562 1018.023438 381.097656 1015.40625 378.476562 Z M 1070.84375 354.148438 C 1067.730469 357.261719 1067.730469 362.3125 1070.84375 365.425781 C 1073.953125 368.535156 1079.003906 368.535156 1082.113281 365.425781 C 1085.226562 362.3125 1085.226562 357.261719 1082.113281 354.148438 C 1079.003906 351.035156 1073.953125 351.035156 1070.84375 354.148438 Z M 992.335938 432.121094 C 988.773438 428.558594 983 428.558594 979.4375 432.121094 C 975.875 435.683594 975.875 441.457031 979.4375 445.023438 C 983 448.585938 988.773438 448.585938 992.335938 445.023438 C 995.898438 441.457031 995.898438 435.683594 992.335938 432.121094 Z M 859.726562 332.375 C 856.402344 329.046875 851.003906 329.046875 847.675781 332.375 C 844.347656 335.703125 844.347656 341.101562 847.675781 344.429688 C 851.003906 347.757812 856.402344 347.757812 859.726562 344.429688 C 863.058594 341.101562 863.058594 335.703125 859.726562 332.375 Z M 861.375 434.988281 C 865.609375 430.753906 865.609375 423.882812 861.375 419.644531 C 857.136719 415.410156 850.269531 415.410156 846.035156 419.644531 C 841.796875 423.882812 841.796875 430.753906 846.035156 434.988281 C 850.269531 439.226562 857.136719 439.226562 861.375 434.988281 Z M 914.691406 425.492188 C 912.269531 423.070312 908.347656 423.070312 905.925781 425.492188 C 903.503906 427.914062 903.503906 431.835938 905.925781 434.261719 C 908.347656 436.683594 912.269531 436.683594 914.691406 434.261719 C 917.113281 431.835938 917.113281 427.914062 914.691406 425.492188 Z M 1047.171875 411.882812 C 1049.238281 413.949219 1052.589844 413.949219 1054.65625 411.882812 C 1056.722656 409.816406 1056.722656 406.460938 1054.65625 404.394531 C 1052.589844 402.328125 1049.238281 402.328125 1047.171875 404.394531 C 1045.105469 406.460938 1045.105469 409.816406 1047.171875 411.882812 Z M 1031.800781 285.453125 C 1029.511719 283.167969 1025.800781 283.167969 1023.515625 285.453125 C 1021.226562 287.742188 1021.226562 291.453125 1023.515625 293.742188 C 1025.800781 296.027344 1029.511719 296.027344 1031.800781 293.742188 C 1034.085938 291.449219 1034.085938 287.742188 1031.800781 285.453125 Z M 816.574219 472.003906 C 814.488281 469.921875 811.113281 469.921875 809.027344 472.003906 C 806.945312 474.089844 806.945312 477.46875 809.027344 479.554688 C 811.113281 481.636719 814.488281 481.636719 816.574219 479.554688 C 818.65625 477.472656 818.65625 474.089844 816.574219 472.003906 Z M 1011 614.4375 C 1008.492188 613.652344 1007.085938 610.980469 1007.871094 608.46875 C 1008.65625 605.960938 1011.328125 604.554688 1013.835938 605.339844 C 1016.347656 606.125 1017.75 608.796875 1016.964844 611.308594 C 1016.1875 613.820312 1013.515625 615.222656 1011 614.4375 Z M 985.332031 634.5 C 986.410156 631.039062 984.484375 627.363281 981.023438 626.28125 C 977.5625 625.203125 973.890625 627.132812 972.808594 630.589844 C 971.730469 634.050781 973.65625 637.726562 977.117188 638.808594 C 980.578125 639.886719 984.253906 637.957031 985.332031 634.5 Z M 1004.726562 660.863281 C 1005.246094 659.203125 1004.320312 657.4375 1002.65625 656.914062 C 1000.996094 656.398438 999.230469 657.324219 998.710938 658.988281 C 998.195312 660.648438 999.117188 662.414062 1000.78125 662.933594 C 1002.445312 663.449219 1004.210938 662.523438 1004.726562 660.863281 Z M 956.324219 719.265625 C 956.980469 717.160156 955.808594 714.921875 953.703125 714.261719 C 951.59375 713.605469 949.355469 714.777344 948.695312 716.882812 C 948.042969 718.992188 949.214844 721.230469 951.320312 721.890625 C 953.425781 722.550781 955.671875 721.375 956.324219 719.265625 Z M 984.460938 741.769531 C 981.960938 740.988281 979.300781 742.382812 978.519531 744.882812 C 977.738281 747.382812 979.136719 750.046875 981.636719 750.824219 C 984.132812 751.605469 986.792969 750.210938 987.574219 747.710938 C 988.355469 745.207031 986.960938 742.550781 984.460938 741.769531 Z M 958.839844 689.3125 C 959.734375 686.449219 958.136719 683.410156 955.273438 682.515625 C 952.414062 681.621094 949.371094 683.21875 948.476562 686.082031 C 947.582031 688.945312 949.179688 691.984375 952.042969 692.878906 C 954.902344 693.769531 957.949219 692.171875 958.839844 689.3125 Z M 937.597656 624.46875 C 938.433594 621.792969 936.941406 618.949219 934.265625 618.117188 C 931.59375 617.28125 928.75 618.773438 927.917969 621.449219 C 927.082031 624.125 928.574219 626.96875 931.246094 627.800781 C 933.917969 628.632812 936.761719 627.144531 937.597656 624.46875 Z M 883.992188 653.691406 C 887.398438 654.753906 891.011719 652.855469 892.078125 649.449219 C 893.140625 646.042969 891.242188 642.425781 887.835938 641.363281 C 884.433594 640.300781 880.816406 642.199219 879.753906 645.605469 C 878.691406 649.007812 880.589844 652.628906 883.992188 653.691406 Z M 903.730469 679.171875 C 904.335938 677.226562 903.253906 675.15625 901.304688 674.554688 C 899.359375 673.945312 897.292969 675.03125 896.691406 676.976562 C 896.082031 678.921875 897.167969 680.988281 899.113281 681.59375 C 901.054688 682.203125 903.121094 681.117188 903.730469 679.171875 Z M 947.503906 745.242188 C 946.984375 746.902344 947.910156 748.671875 949.574219 749.191406 C 951.234375 749.707031 953 748.785156 953.519531 747.121094 C 954.035156 745.460938 953.113281 743.691406 951.449219 743.171875 C 949.789062 742.65625 948.023438 743.582031 947.503906 745.242188 Z M 1009.863281 702.203125 C 1010.433594 700.363281 1009.410156 698.410156 1007.570312 697.839844 C 1005.730469 697.269531 1003.777344 698.289062 1003.207031 700.128906 C 1002.636719 701.96875 1003.65625 703.925781 1005.496094 704.496094 C 1007.332031 705.066406 1009.285156 704.042969 1009.863281 702.203125 Z M 852.113281 640.304688 C 852.636719 638.628906 851.703125 636.851562 850.027344 636.328125 C 848.355469 635.804688 846.578125 636.738281 846.050781 638.414062 C 845.527344 640.089844 846.464844 641.867188 848.136719 642.390625 C 849.808594 642.910156 851.589844 641.980469 852.113281 640.304688 Z M 546.410156 118.664062 C 546.664062 121.183594 544.832031 123.433594 542.316406 123.695312 C 539.796875 123.949219 537.546875 122.117188 537.289062 119.601562 C 537.027344 117.082031 538.863281 114.832031 541.382812 114.570312 C 543.902344 114.316406 546.152344 116.148438 546.410156 118.664062 Z M 566.683594 142.605469 C 563.21875 142.960938 560.691406 146.058594 561.046875 149.527344 C 561.402344 152.996094 564.5 155.519531 567.96875 155.164062 C 571.441406 154.808594 573.960938 151.710938 573.605469 148.242188 C 573.25 144.773438 570.148438 142.25 566.683594 142.605469 Z M 589.835938 106.640625 C 588.171875 106.8125 586.957031 108.300781 587.125 109.964844 C 587.296875 111.628906 588.785156 112.839844 590.449219 112.671875 C 592.113281 112.503906 593.328125 111.011719 593.15625 109.347656 C 592.988281 107.679688 591.5 106.46875 589.835938 106.640625 Z M 676.300781 150.707031 C 674.191406 150.925781 672.652344 152.8125 672.867188 154.921875 C 673.082031 157.035156 674.96875 158.574219 677.082031 158.359375 C 679.191406 158.140625 680.730469 156.253906 680.515625 154.140625 C 680.296875 152.027344 678.410156 150.492188 676.300781 150.707031 Z M 669.046875 93.941406 C 669.300781 96.449219 671.539062 98.273438 674.050781 98.019531 C 676.558594 97.761719 678.382812 95.523438 678.125 93.011719 C 677.867188 90.5 675.628906 88.679688 673.121094 88.9375 C 670.613281 89.191406 668.789062 91.4375 669.046875 93.941406 Z M 622.289062 149.601562 C 619.417969 149.894531 617.335938 152.460938 617.628906 155.328125 C 617.921875 158.191406 620.484375 160.28125 623.351562 159.988281 C 626.21875 159.695312 628.304688 157.128906 628.011719 154.261719 C 627.722656 151.398438 625.15625 149.308594 622.289062 149.601562 Z M 599.015625 178.238281 C 596.339844 178.511719 594.386719 180.910156 594.660156 183.589844 C 594.933594 186.269531 597.332031 188.222656 600.011719 187.949219 C 602.6875 187.671875 604.640625 185.277344 604.367188 182.597656 C 604.09375 179.917969 601.699219 177.96875 599.015625 178.238281 Z M 661.914062 130.917969 C 661.566406 127.507812 658.519531 125.023438 655.105469 125.375 C 651.695312 125.722656 649.214844 128.769531 649.5625 132.183594 C 649.910156 135.597656 652.960938 138.078125 656.371094 137.730469 C 659.78125 137.378906 662.261719 134.332031 661.914062 130.917969 Z M 644.265625 189.070312 C 642.3125 189.269531 640.894531 191.011719 641.09375 192.960938 C 641.292969 194.914062 643.035156 196.332031 644.984375 196.132812 C 646.933594 195.933594 648.351562 194.191406 648.15625 192.238281 C 647.953125 190.285156 646.214844 188.867188 644.265625 189.070312 Z M 686.113281 125.324219 C 687.777344 125.152344 688.988281 123.664062 688.820312 122 C 688.648438 120.335938 687.160156 119.125 685.496094 119.292969 C 683.835938 119.464844 682.621094 120.953125 682.789062 122.617188 C 682.957031 124.28125 684.445312 125.492188 686.113281 125.324219 Z M 624.445312 86.445312 C 622.605469 86.632812 621.261719 88.285156 621.453125 90.128906 C 621.644531 91.972656 623.289062 93.3125 625.132812 93.121094 C 626.976562 92.929688 628.316406 91.285156 628.125 89.441406 C 627.9375 87.597656 626.289062 86.257812 624.445312 86.445312 Z M 629.433594 249.453125 C 627.757812 249.625 626.535156 251.125 626.707031 252.804688 C 626.878906 254.480469 628.378906 255.703125 630.058594 255.53125 C 631.734375 255.359375 632.957031 253.859375 632.785156 252.179688 C 632.609375 250.5 631.113281 249.28125 629.433594 249.453125 Z M 629.433594 249.453125 " fill-opacity="1" fill-rule="nonzero"/></svg>