<svg xmlns="http://www.w3.org/2000/svg" xmlns:xlink="http://www.w3.org/1999/xlink" width="1920" zoomAndPan="magnify" viewBox="0 0 1440 809.999993" height="1080" preserveAspectRatio="xMidYMid meet" version="1.0"><defs><clipPath id="6f09ca012c"><path d="M 180 330 L 1260 330 L 1260 743.878906 L 180 743.878906 Z M 180 330 " clip-rule="nonzero"/></clipPath><clipPath id="ad86d16509"><path d="M 181 65.878906 L 1260 65.878906 L 1260 386 L 181 386 Z M 181 65.878906 " clip-rule="nonzero"/></clipPath></defs><g clip-path="url(#6f09ca012c)"><path fill="#f0c642" d="M 1254.542969 695.449219 C 1251.910156 698.773438 1149.085938 709.839844 1149.085938 709.839844 C 1149.085938 709.839844 1139.890625 693.617188 1134.320312 689.300781 C 1130.242188 686.152344 1109.285156 681.019531 1104.101562 681.449219 C 1098.921875 681.882812 1077.125 691.460938 1077.125 691.460938 C 1073.085938 694.585938 1062.296875 717.238281 1062.296875 717.238281 C 1062.296875 717.238281 912.523438 736.933594 893.59375 738.335938 C 874.664062 739.738281 618.675781 743.835938 618.675781 743.835938 L 561.824219 742.089844 L 554.917969 725.757812 L 523.707031 698.339844 C 523.707031 698.339844 494.871094 683.242188 477.882812 683.242188 C 459.925781 683.242188 434.390625 696.808594 429.792969 700.152344 C 423.039062 705.007812 407 737.6875 407 737.6875 C 407 737.6875 286.582031 743.878906 265.410156 739.476562 C 248.726562 735.960938 180.519531 723.171875 180.519531 720.429688 C 180.519531 717.691406 185.527344 646.675781 185.527344 646.675781 L 187.125 632.71875 C 191.039062 631.609375 194.691406 629.933594 198.089844 627.695312 C 198.089844 627.695312 209.507812 617.316406 211.925781 612.484375 C 213.109375 610.199219 214.082031 596.867188 214.082031 594.257812 C 214.082031 591.648438 208.125 569.082031 205.039062 564.507812 C 201.953125 559.9375 186.238281 554.242188 186.238281 554.242188 L 182.675781 449.660156 L 185.527344 393.339844 L 181.210938 356.492188 L 1259.226562 330.132812 L 1258.171875 360.183594 C 1258.171875 360.183594 1259.832031 382.789062 1259.726562 385.703125 C 1259.726562 387.558594 1228.382812 410.164062 1228.382812 410.164062 C 1228.382812 410.164062 1221.671875 439.847656 1222.6875 447.980469 C 1223.699219 456.113281 1240.082031 474.039062 1240.082031 474.039062 C 1240.082031 474.039062 1250.984375 481.609375 1257.351562 483.398438 L 1254.394531 566.753906 C 1254.394531 566.753906 1257.179688 692.105469 1254.542969 695.449219 Z M 1254.542969 695.449219 " fill-opacity="1" fill-rule="nonzero"/></g><path fill="#e7a524" d="M 1259.207031 330.132812 L 1190.222656 357.335938 L 1090.65625 377.007812 L 829.921875 377.007812 L 537.867188 397.566406 L 228.457031 371.960938 L 181.125 356.492188 Z M 1259.207031 330.132812 " fill-opacity="1" fill-rule="nonzero"/><g clip-path="url(#ad86d16509)"><path fill="#f0c642" d="M 1197.777344 217.742188 C 1194.304688 213.730469 1091.238281 129.882812 1091.238281 129.882812 L 1009.21875 89.15625 C 1009.21875 89.15625 938.121094 65.878906 933.804688 65.878906 C 929.488281 65.878906 849.625 87.6875 849.625 87.6875 C 849.625 87.6875 853.535156 98.105469 853.167969 101.601562 C 852.90625 104.148438 846.691406 116.378906 837.085938 126.257812 C 834.019531 129.40625 804.710938 135.210938 804.710938 135.210938 L 771.707031 133.851562 C 771.707031 133.851562 754.441406 127.960938 746.453125 119.289062 C 746.453125 119.289062 630.808594 147.332031 619.863281 151.128906 C 616.949219 152.164062 348.875 261.40625 348.875 261.40625 L 181.101562 356.492188 L 537.867188 385.140625 L 829.921875 358.800781 L 1090.65625 358.800781 L 1259.226562 330.242188 C 1259.226562 330.242188 1202.65625 223.351562 1197.777344 217.742188 Z M 1197.777344 217.742188 " fill-opacity="1" fill-rule="nonzero"/></g><path fill="#e6a423" d="M 758.628906 219.039062 C 755.140625 211.613281 753.160156 203.800781 752.691406 195.609375 C 752.238281 188.6875 784.269531 175.894531 784.269531 175.894531 L 815.460938 178.742188 C 815.460938 178.742188 840.238281 190.152344 840.992188 197.464844 C 841.597656 203.117188 838.835938 216.882812 834.972656 220.050781 C 831.109375 223.222656 811.226562 227.902344 811.226562 227.902344 C 811.226562 227.902344 789.386719 228.960938 786.902344 229.738281 C 782.714844 231.097656 758.628906 219.039062 758.628906 219.039062 Z M 758.628906 219.039062 " fill-opacity="1" fill-rule="nonzero"/><path fill="#e6a423" d="M 684.53125 690.683594 C 674.585938 694.808594 664.253906 697.378906 653.535156 698.382812 C 645.59375 698.945312 628.648438 678.773438 628.648438 678.773438 L 629.769531 658.539062 C 629.769531 658.539062 641.273438 642.101562 649.691406 641.285156 C 656.167969 640.65625 673.695312 645.058594 674.988281 645.792969 C 676.285156 646.527344 686.625 662.292969 686.625 662.292969 C 688.183594 666.429688 689.519531 670.636719 690.636719 674.914062 C 690.832031 678.128906 684.53125 690.683594 684.53125 690.683594 Z M 684.53125 690.683594 " fill-opacity="1" fill-rule="nonzero"/><path fill="#e6a423" d="M 1151.976562 254.804688 C 1151.976562 254.804688 1153.164062 254.027344 1159.703125 253.511719 C 1166.242188 252.992188 1173.195312 258.40625 1173.195312 258.40625 C 1173.195312 258.40625 1176.519531 263.734375 1174.855469 266.519531 C 1171.835938 271.609375 1165.011719 274.996094 1163.785156 275.816406 C 1161.238281 277.519531 1148.199219 274.585938 1148.199219 274.585938 C 1148.199219 274.585938 1142.414062 267.855469 1143.882812 264.078125 C 1145.351562 260.304688 1151.976562 254.804688 1151.976562 254.804688 Z M 1151.976562 254.804688 " fill-opacity="1" fill-rule="nonzero"/><path fill="#e6a423" d="M 1042.609375 473.585938 C 1042.609375 473.585938 1044.402344 472.636719 1053.855469 472.550781 C 1063.308594 472.464844 1072.742188 481.027344 1072.742188 481.027344 C 1072.742188 481.027344 1076.90625 489.050781 1074.230469 492.871094 C 1069.332031 499.835938 1059.121094 504 1057.332031 505.058594 C 1053.46875 507.214844 1035.054688 501.628906 1035.054688 501.628906 C 1035.054688 501.628906 1027.480469 491.359375 1029.855469 486.054688 C 1032.226562 480.746094 1042.609375 473.585938 1042.609375 473.585938 Z M 1042.609375 473.585938 " fill-opacity="1" fill-rule="nonzero"/><path fill="#e6a423" d="M 1159.53125 604.203125 C 1159.53125 604.203125 1161.367188 603.015625 1171.425781 602.195312 C 1181.484375 601.375 1192.230469 609.765625 1192.230469 609.765625 C 1192.230469 609.765625 1197.324219 617.984375 1194.777344 622.257812 C 1190.117188 630.085938 1179.667969 635.308594 1177.707031 636.582031 C 1173.777344 639.210938 1153.683594 634.683594 1153.683594 634.683594 C 1153.683594 634.683594 1144.8125 624.328125 1146.90625 618.503906 C 1149 612.679688 1159.53125 604.203125 1159.53125 604.203125 Z M 1159.53125 604.203125 " fill-opacity="1" fill-rule="nonzero"/><path fill="#e6a423" d="M 590.726562 219.816406 C 590.726562 219.816406 591.914062 219.058594 598.453125 218.519531 C 604.992188 217.980469 611.964844 223.351562 611.964844 223.351562 C 611.964844 223.351562 615.265625 228.679688 613.605469 231.464844 C 610.582031 236.53125 603.761719 239.917969 602.53125 240.738281 C 599.984375 242.464844 586.949219 239.511719 586.949219 239.511719 C 586.949219 239.511719 581.183594 232.800781 582.632812 229.003906 C 584.078125 225.207031 590.726562 219.816406 590.726562 219.816406 Z M 590.726562 219.816406 " fill-opacity="1" fill-rule="nonzero"/><path fill="#e6a423" d="M 278.617188 444.054688 C 278.617188 444.054688 280.777344 443.320312 291.570312 445.066406 C 302.363281 446.8125 311.277344 458.484375 311.277344 458.484375 C 311.277344 458.484375 314.425781 468.386719 310.628906 472.203125 C 303.699219 479.148438 291.355469 481.847656 289.042969 482.667969 C 284.253906 484.390625 264.480469 474.40625 264.480469 474.40625 C 264.480469 474.40625 258.007812 461.289062 261.675781 455.765625 C 265.34375 450.246094 278.617188 444.054688 278.617188 444.054688 Z M 278.617188 444.054688 " fill-opacity="1" fill-rule="nonzero"/><path fill="#e6a423" d="M 1023.464844 594.386719 C 1027.089844 583.148438 999.851562 536.25 995.707031 534.246094 C 991.5625 532.238281 918.910156 517.871094 904.320312 527.773438 C 897.285156 532.582031 843.28125 565.285156 841.402344 581.703125 C 839.527344 598.117188 848.394531 625.210938 852.628906 628.253906 C 870.714844 641.195312 919.429688 655.628906 932.488281 655.886719 C 945.546875 656.144531 977.339844 648.121094 977.339844 648.121094 C 977.339844 648.121094 1016.429688 616.238281 1023.464844 594.386719 Z M 1023.464844 594.386719 " fill-opacity="1" fill-rule="nonzero"/><path fill="#e6a423" d="M 312.613281 552.515625 C 310.867188 534.246094 330.550781 512.046875 338.753906 509.5 C 346.953125 506.957031 381.402344 513.578125 392.582031 519.683594 C 400.785156 524.171875 419.476562 545.808594 422.21875 557.542969 C 424.160156 565.933594 406.9375 598.203125 406.9375 598.203125 C 406.9375 598.203125 371.949219 611.300781 359.257812 608.644531 C 344.386719 605.539062 327.484375 592.230469 327.484375 592.230469 C 327.484375 592.230469 314.339844 570.808594 312.613281 552.515625 Z M 312.613281 552.515625 " fill-opacity="1" fill-rule="nonzero"/><path fill="#e6a423" d="M 1010.125 176.21875 C 1010.125 176.21875 1017.464844 174.363281 1051.136719 179.042969 C 1084.808594 183.726562 1109.996094 213.40625 1109.996094 213.40625 C 1109.996094 213.40625 1116.96875 238.753906 1103.628906 248.398438 C 1079.28125 266.019531 1038.984375 272.707031 1031.320312 274.800781 C 1015.4375 279.117188 955.34375 253.230469 955.34375 253.230469 C 955.34375 253.230469 938.554688 219.621094 952.238281 205.535156 C 965.921875 191.449219 1010.125 176.21875 1010.125 176.21875 Z M 1010.125 176.21875 " fill-opacity="1" fill-rule="nonzero"/><path fill="#e6a423" d="M 555.242188 299.804688 C 555.242188 299.804688 536.507812 313.652344 532.167969 315.679688 C 528.5625 317.363281 484.554688 320.664062 474.644531 317.707031 C 465.40625 314.945312 440.585938 302.605469 438.945312 292.921875 C 437.304688 283.234375 460.53125 264.210938 464.847656 261.101562 C 470.113281 257.261719 503.007812 253.53125 510.171875 253.464844 C 518.808594 253.464844 542.894531 259.9375 542.894531 259.9375 C 542.894531 259.9375 563.984375 276.3125 563.984375 281.832031 C 563.984375 287.355469 555.242188 299.804688 555.242188 299.804688 Z M 555.242188 299.804688 " fill-opacity="1" fill-rule="nonzero"/><path fill="#e6a423" d="M 799.378906 491.835938 C 799.378906 491.835938 773.476562 508.121094 768.039062 510.214844 C 763.613281 511.9375 719.28125 508.445312 711.402344 502.339844 C 704.085938 496.644531 687.292969 474.1875 691.222656 460.167969 C 695.042969 446.46875 728.476562 423.085938 734.390625 419.441406 C 741.664062 414.929688 775.527344 415.773438 782.523438 417.023438 C 790.917969 418.511719 810.320312 432.492188 810.320312 432.492188 C 810.320312 432.492188 821.265625 459.886719 818.09375 467.78125 C 814.917969 475.675781 799.378906 491.835938 799.378906 491.835938 Z M 799.378906 491.835938 " fill-opacity="1" fill-rule="nonzero"/></svg>